<?xml version="1.0" encoding="UTF-8"?>
<svg xmlns="http://www.w3.org/2000/svg" xmlns:xlink="http://www.w3.org/1999/xlink" width="450" height="338" viewBox="0 0 450 338">
<path fill-rule="nonzero" fill="rgb(100%, 100%, 100%)" fill-opacity="1" d="M 0 0 L 450 0 L 450 337.5 L 0 337.5 Z M 0 0 "/>
<path fill-rule="nonzero" fill="rgb(89.999998%, 89.999998%, 89.999998%)" fill-opacity="1" stroke-width="1" stroke-linecap="butt" stroke-linejoin="miter" stroke="rgb(0%, 0%, 0%)" stroke-opacity="1" stroke-miterlimit="2" d="M 193.333333 16 L 16 16 L 16 434 L 193.333333 434 Z M 193.333333 16 " transform="matrix(0.75, 0, 0, 0.75, 0, 0)"/>
<path fill-rule="nonzero" fill="rgb(89.999998%, 89.999998%, 89.999998%)" fill-opacity="1" stroke-width="1" stroke-linecap="butt" stroke-linejoin="miter" stroke="rgb(0%, 0%, 0%)" stroke-opacity="1" stroke-miterlimit="2" d="M 388.666667 225 L 388.666667 36 C 388.666667 24.953125 379.713542 16 368.666667 16 L 231.333333 16 C 220.286458 16 211.333333 24.953125 211.333333 36 L 211.333333 414 C 211.333333 425.046875 220.286458 434 231.333333 434 L 368.666667 434 C 379.713542 434 388.666667 425.046875 388.666667 414 Z M 388.666667 225 " transform="matrix(0.75, 0, 0, 0.75, 0, 0)"/>
<path fill-rule="nonzero" fill="rgb(89.999998%, 89.999998%, 89.999998%)" fill-opacity="1" stroke-width="1" stroke-linecap="butt" stroke-linejoin="miter" stroke="rgb(0%, 0%, 0%)" stroke-opacity="1" stroke-miterlimit="2" d="M 584 225 L 584 16 L 436.666667 16 C 420.098958 16 406.666667 29.432292 406.666667 46 L 406.666667 414 C 406.666667 425.046875 415.619792 434 426.666667 434 L 574 434 C 579.520833 434 584 429.520833 584 424 Z M 584 225 " transform="matrix(0.75, 0, 0, 0.75, 0, 0)"/>
</svg>
