<?xml version="1.0" encoding="UTF-8"?>
<svg xmlns="http://www.w3.org/2000/svg" xmlns:xlink="http://www.w3.org/1999/xlink" width="600pt" height="450pt" viewBox="0 0 600 450" version="1.1">
<defs>
<g>
<symbol overflow="visible" id="qpxpSE2q0-0">
<path style="stroke:none;" d="M 0.59375 2.125 L 0.59375 -8.46875 L 6.59375 -8.46875 L 6.59375 2.125 Z M 1.265625 1.453125 L 5.9375 1.453125 L 5.9375 -7.78125 L 1.265625 -7.78125 Z M 1.265625 1.453125 "/>
</symbol>
<symbol overflow="visible" id="qpxpSE2q0-1">
<path style="stroke:none;" d="M 3.8125 -7.96875 C 3.207031 -7.96875 2.75 -7.664063 2.4375 -7.0625 C 2.132813 -6.46875 1.984375 -5.566406 1.984375 -4.359375 C 1.984375 -3.160156 2.132813 -2.257813 2.4375 -1.65625 C 2.75 -1.0625 3.207031 -0.765625 3.8125 -0.765625 C 4.425781 -0.765625 4.882813 -1.0625 5.1875 -1.65625 C 5.5 -2.257813 5.65625 -3.160156 5.65625 -4.359375 C 5.65625 -5.566406 5.5 -6.46875 5.1875 -7.0625 C 4.882813 -7.664063 4.425781 -7.96875 3.8125 -7.96875 Z M 3.8125 -8.90625 C 4.789063 -8.90625 5.539063 -8.515625 6.0625 -7.734375 C 6.582031 -6.960938 6.84375 -5.835938 6.84375 -4.359375 C 6.84375 -2.890625 6.582031 -1.765625 6.0625 -0.984375 C 5.539063 -0.210938 4.789063 0.171875 3.8125 0.171875 C 2.832031 0.171875 2.082031 -0.210938 1.5625 -0.984375 C 1.050781 -1.765625 0.796875 -2.890625 0.796875 -4.359375 C 0.796875 -5.835938 1.050781 -6.960938 1.5625 -7.734375 C 2.082031 -8.515625 2.832031 -8.90625 3.8125 -8.90625 Z M 3.8125 -8.90625 "/>
</symbol>
<symbol overflow="visible" id="qpxpSE2q0-2">
<path style="stroke:none;" d="M 2.296875 -1 L 6.4375 -1 L 6.4375 0 L 0.875 0 L 0.875 -1 C 1.320313 -1.457031 1.929688 -2.078125 2.703125 -2.859375 C 3.484375 -3.648438 3.972656 -4.160156 4.171875 -4.390625 C 4.554688 -4.804688 4.820313 -5.160156 4.96875 -5.453125 C 5.125 -5.753906 5.203125 -6.046875 5.203125 -6.328125 C 5.203125 -6.796875 5.035156 -7.175781 4.703125 -7.46875 C 4.378906 -7.757813 3.957031 -7.90625 3.4375 -7.90625 C 3.0625 -7.90625 2.664063 -7.84375 2.25 -7.71875 C 1.84375 -7.59375 1.40625 -7.394531 0.9375 -7.125 L 0.9375 -8.328125 C 1.414063 -8.515625 1.859375 -8.65625 2.265625 -8.75 C 2.679688 -8.851563 3.0625 -8.90625 3.40625 -8.90625 C 4.3125 -8.90625 5.035156 -8.675781 5.578125 -8.21875 C 6.117188 -7.769531 6.390625 -7.164063 6.390625 -6.40625 C 6.390625 -6.050781 6.320313 -5.710938 6.1875 -5.390625 C 6.050781 -5.066406 5.804688 -4.6875 5.453125 -4.25 C 5.347656 -4.132813 5.035156 -3.804688 4.515625 -3.265625 C 3.992188 -2.722656 3.253906 -1.96875 2.296875 -1 Z M 2.296875 -1 "/>
</symbol>
<symbol overflow="visible" id="qpxpSE2q0-3">
<path style="stroke:none;" d="M 1.28125 -1.484375 L 2.515625 -1.484375 L 2.515625 0 L 1.28125 0 Z M 1.28125 -1.484375 "/>
</symbol>
<symbol overflow="visible" id="qpxpSE2q0-4">
<path style="stroke:none;" d="M 1.296875 -8.75 L 5.9375 -8.75 L 5.9375 -7.75 L 2.375 -7.75 L 2.375 -5.609375 C 2.550781 -5.671875 2.722656 -5.710938 2.890625 -5.734375 C 3.066406 -5.765625 3.238281 -5.78125 3.40625 -5.78125 C 4.382813 -5.78125 5.160156 -5.507813 5.734375 -4.96875 C 6.304688 -4.4375 6.59375 -3.71875 6.59375 -2.8125 C 6.59375 -1.863281 6.296875 -1.128906 5.703125 -0.609375 C 5.117188 -0.0859375 4.296875 0.171875 3.234375 0.171875 C 2.859375 0.171875 2.476563 0.140625 2.09375 0.078125 C 1.71875 0.015625 1.328125 -0.078125 0.921875 -0.203125 L 0.921875 -1.390625 C 1.273438 -1.203125 1.640625 -1.0625 2.015625 -0.96875 C 2.390625 -0.875 2.785156 -0.828125 3.203125 -0.828125 C 3.878906 -0.828125 4.414063 -1.003906 4.8125 -1.359375 C 5.207031 -1.710938 5.40625 -2.195313 5.40625 -2.8125 C 5.40625 -3.414063 5.207031 -3.894531 4.8125 -4.25 C 4.414063 -4.601563 3.878906 -4.78125 3.203125 -4.78125 C 2.890625 -4.78125 2.570313 -4.742188 2.25 -4.671875 C 1.9375 -4.609375 1.617188 -4.503906 1.296875 -4.359375 Z M 1.296875 -8.75 "/>
</symbol>
<symbol overflow="visible" id="qpxpSE2q1-0">
<path style="stroke:none;" d="M 0.59375 2.125 L 0.59375 -8.46875 L 6.59375 -8.46875 L 6.59375 2.125 Z M 1.265625 1.453125 L 5.9375 1.453125 L 5.9375 -7.78125 L 1.265625 -7.78125 Z M 1.265625 1.453125 "/>
</symbol>
<symbol overflow="visible" id="qpxpSE2q1-1">
<path style="stroke:none;" d="M 1.296875 -8.75 L 5.9375 -8.75 L 5.9375 -7.75 L 2.375 -7.75 L 2.375 -5.609375 C 2.550781 -5.671875 2.722656 -5.710938 2.890625 -5.734375 C 3.066406 -5.765625 3.238281 -5.78125 3.40625 -5.78125 C 4.382813 -5.78125 5.160156 -5.507813 5.734375 -4.96875 C 6.304688 -4.4375 6.59375 -3.71875 6.59375 -2.8125 C 6.59375 -1.863281 6.296875 -1.128906 5.703125 -0.609375 C 5.117188 -0.0859375 4.296875 0.171875 3.234375 0.171875 C 2.859375 0.171875 2.476563 0.140625 2.09375 0.078125 C 1.71875 0.015625 1.328125 -0.078125 0.921875 -0.203125 L 0.921875 -1.390625 C 1.273438 -1.203125 1.640625 -1.0625 2.015625 -0.96875 C 2.390625 -0.875 2.785156 -0.828125 3.203125 -0.828125 C 3.878906 -0.828125 4.414063 -1.003906 4.8125 -1.359375 C 5.207031 -1.710938 5.40625 -2.195313 5.40625 -2.8125 C 5.40625 -3.414063 5.207031 -3.894531 4.8125 -4.25 C 4.414063 -4.601563 3.878906 -4.78125 3.203125 -4.78125 C 2.890625 -4.78125 2.570313 -4.742188 2.25 -4.671875 C 1.9375 -4.609375 1.617188 -4.503906 1.296875 -4.359375 Z M 1.296875 -8.75 "/>
</symbol>
<symbol overflow="visible" id="qpxpSE2q1-2">
<path style="stroke:none;" d="M 3.8125 -7.96875 C 3.207031 -7.96875 2.75 -7.664063 2.4375 -7.0625 C 2.132813 -6.46875 1.984375 -5.566406 1.984375 -4.359375 C 1.984375 -3.160156 2.132813 -2.257813 2.4375 -1.65625 C 2.75 -1.0625 3.207031 -0.765625 3.8125 -0.765625 C 4.425781 -0.765625 4.882813 -1.0625 5.1875 -1.65625 C 5.5 -2.257813 5.65625 -3.160156 5.65625 -4.359375 C 5.65625 -5.566406 5.5 -6.46875 5.1875 -7.0625 C 4.882813 -7.664063 4.425781 -7.96875 3.8125 -7.96875 Z M 3.8125 -8.90625 C 4.789063 -8.90625 5.539063 -8.515625 6.0625 -7.734375 C 6.582031 -6.960938 6.84375 -5.835938 6.84375 -4.359375 C 6.84375 -2.890625 6.582031 -1.765625 6.0625 -0.984375 C 5.539063 -0.210938 4.789063 0.171875 3.8125 0.171875 C 2.832031 0.171875 2.082031 -0.210938 1.5625 -0.984375 C 1.050781 -1.765625 0.796875 -2.890625 0.796875 -4.359375 C 0.796875 -5.835938 1.050781 -6.960938 1.5625 -7.734375 C 2.082031 -8.515625 2.832031 -8.90625 3.8125 -8.90625 Z M 3.8125 -8.90625 "/>
</symbol>
<symbol overflow="visible" id="qpxpSE2q2-0">
<path style="stroke:none;" d="M 0.59375 2.125 L 0.59375 -8.46875 L 6.59375 -8.46875 L 6.59375 2.125 Z M 1.265625 1.453125 L 5.9375 1.453125 L 5.9375 -7.78125 L 1.265625 -7.78125 Z M 1.265625 1.453125 "/>
</symbol>
<symbol overflow="visible" id="qpxpSE2q2-1">
<path style="stroke:none;" d="M 3.8125 -7.96875 C 3.207031 -7.96875 2.75 -7.664063 2.4375 -7.0625 C 2.132813 -6.46875 1.984375 -5.566406 1.984375 -4.359375 C 1.984375 -3.160156 2.132813 -2.257813 2.4375 -1.65625 C 2.75 -1.0625 3.207031 -0.765625 3.8125 -0.765625 C 4.425781 -0.765625 4.882813 -1.0625 5.1875 -1.65625 C 5.5 -2.257813 5.65625 -3.160156 5.65625 -4.359375 C 5.65625 -5.566406 5.5 -6.46875 5.1875 -7.0625 C 4.882813 -7.664063 4.425781 -7.96875 3.8125 -7.96875 Z M 3.8125 -8.90625 C 4.789063 -8.90625 5.539063 -8.515625 6.0625 -7.734375 C 6.582031 -6.960938 6.84375 -5.835938 6.84375 -4.359375 C 6.84375 -2.890625 6.582031 -1.765625 6.0625 -0.984375 C 5.539063 -0.210938 4.789063 0.171875 3.8125 0.171875 C 2.832031 0.171875 2.082031 -0.210938 1.5625 -0.984375 C 1.050781 -1.765625 0.796875 -2.890625 0.796875 -4.359375 C 0.796875 -5.835938 1.050781 -6.960938 1.5625 -7.734375 C 2.082031 -8.515625 2.832031 -8.90625 3.8125 -8.90625 Z M 3.8125 -8.90625 "/>
</symbol>
<symbol overflow="visible" id="qpxpSE2q3-0">
<path style="stroke:none;" d="M 0.59375 2.125 L 0.59375 -8.46875 L 6.59375 -8.46875 L 6.59375 2.125 Z M 1.265625 1.453125 L 5.9375 1.453125 L 5.9375 -7.78125 L 1.265625 -7.78125 Z M 1.265625 1.453125 "/>
</symbol>
<symbol overflow="visible" id="qpxpSE2q3-1">
<path style="stroke:none;" d="M 1.484375 -1 L 3.421875 -1 L 3.421875 -7.671875 L 1.3125 -7.25 L 1.3125 -8.328125 L 3.40625 -8.75 L 4.59375 -8.75 L 4.59375 -1 L 6.53125 -1 L 6.53125 0 L 1.484375 0 Z M 1.484375 -1 "/>
</symbol>
<symbol overflow="visible" id="qpxpSE2q3-2">
<path style="stroke:none;" d="M 3.8125 -7.96875 C 3.207031 -7.96875 2.75 -7.664063 2.4375 -7.0625 C 2.132813 -6.46875 1.984375 -5.566406 1.984375 -4.359375 C 1.984375 -3.160156 2.132813 -2.257813 2.4375 -1.65625 C 2.75 -1.0625 3.207031 -0.765625 3.8125 -0.765625 C 4.425781 -0.765625 4.882813 -1.0625 5.1875 -1.65625 C 5.5 -2.257813 5.65625 -3.160156 5.65625 -4.359375 C 5.65625 -5.566406 5.5 -6.46875 5.1875 -7.0625 C 4.882813 -7.664063 4.425781 -7.96875 3.8125 -7.96875 Z M 3.8125 -8.90625 C 4.789063 -8.90625 5.539063 -8.515625 6.0625 -7.734375 C 6.582031 -6.960938 6.84375 -5.835938 6.84375 -4.359375 C 6.84375 -2.890625 6.582031 -1.765625 6.0625 -0.984375 C 5.539063 -0.210938 4.789063 0.171875 3.8125 0.171875 C 2.832031 0.171875 2.082031 -0.210938 1.5625 -0.984375 C 1.050781 -1.765625 0.796875 -2.890625 0.796875 -4.359375 C 0.796875 -5.835938 1.050781 -6.960938 1.5625 -7.734375 C 2.082031 -8.515625 2.832031 -8.90625 3.8125 -8.90625 Z M 3.8125 -8.90625 "/>
</symbol>
<symbol overflow="visible" id="qpxpSE2q4-0">
<path style="stroke:none;" d="M 0.59375 2.125 L 0.59375 -8.46875 L 6.59375 -8.46875 L 6.59375 2.125 Z M 1.265625 1.453125 L 5.9375 1.453125 L 5.9375 -7.78125 L 1.265625 -7.78125 Z M 1.265625 1.453125 "/>
</symbol>
<symbol overflow="visible" id="qpxpSE2q4-1">
<path style="stroke:none;" d="M 0.59375 -3.765625 L 3.75 -3.765625 L 3.75 -2.8125 L 0.59375 -2.8125 Z M 0.59375 -3.765625 "/>
</symbol>
<symbol overflow="visible" id="qpxpSE2q5-0">
<path style="stroke:none;" d="M 0.59375 2.125 L 0.59375 -8.46875 L 6.59375 -8.46875 L 6.59375 2.125 Z M 1.265625 1.453125 L 5.9375 1.453125 L 5.9375 -7.78125 L 1.265625 -7.78125 Z M 1.265625 1.453125 "/>
</symbol>
<symbol overflow="visible" id="qpxpSE2q5-1">
<path style="stroke:none;" d="M 3.8125 -7.96875 C 3.207031 -7.96875 2.75 -7.664063 2.4375 -7.0625 C 2.132813 -6.46875 1.984375 -5.566406 1.984375 -4.359375 C 1.984375 -3.160156 2.132813 -2.257813 2.4375 -1.65625 C 2.75 -1.0625 3.207031 -0.765625 3.8125 -0.765625 C 4.425781 -0.765625 4.882813 -1.0625 5.1875 -1.65625 C 5.5 -2.257813 5.65625 -3.160156 5.65625 -4.359375 C 5.65625 -5.566406 5.5 -6.46875 5.1875 -7.0625 C 4.882813 -7.664063 4.425781 -7.96875 3.8125 -7.96875 Z M 3.8125 -8.90625 C 4.789063 -8.90625 5.539063 -8.515625 6.0625 -7.734375 C 6.582031 -6.960938 6.84375 -5.835938 6.84375 -4.359375 C 6.84375 -2.890625 6.582031 -1.765625 6.0625 -0.984375 C 5.539063 -0.210938 4.789063 0.171875 3.8125 0.171875 C 2.832031 0.171875 2.082031 -0.210938 1.5625 -0.984375 C 1.050781 -1.765625 0.796875 -2.890625 0.796875 -4.359375 C 0.796875 -5.835938 1.050781 -6.960938 1.5625 -7.734375 C 2.082031 -8.515625 2.832031 -8.90625 3.8125 -8.90625 Z M 3.8125 -8.90625 "/>
</symbol>
<symbol overflow="visible" id="qpxpSE2q5-2">
<path style="stroke:none;" d="M 1.28125 -1.484375 L 2.515625 -1.484375 L 2.515625 0 L 1.28125 0 Z M 1.28125 -1.484375 "/>
</symbol>
<symbol overflow="visible" id="qpxpSE2q5-3">
<path style="stroke:none;" d="M 2.296875 -1 L 6.4375 -1 L 6.4375 0 L 0.875 0 L 0.875 -1 C 1.320313 -1.457031 1.929688 -2.078125 2.703125 -2.859375 C 3.484375 -3.648438 3.972656 -4.160156 4.171875 -4.390625 C 4.554688 -4.804688 4.820313 -5.160156 4.96875 -5.453125 C 5.125 -5.753906 5.203125 -6.046875 5.203125 -6.328125 C 5.203125 -6.796875 5.035156 -7.175781 4.703125 -7.46875 C 4.378906 -7.757813 3.957031 -7.90625 3.4375 -7.90625 C 3.0625 -7.90625 2.664063 -7.84375 2.25 -7.71875 C 1.84375 -7.59375 1.40625 -7.394531 0.9375 -7.125 L 0.9375 -8.328125 C 1.414063 -8.515625 1.859375 -8.65625 2.265625 -8.75 C 2.679688 -8.851563 3.0625 -8.90625 3.40625 -8.90625 C 4.3125 -8.90625 5.035156 -8.675781 5.578125 -8.21875 C 6.117188 -7.769531 6.390625 -7.164063 6.390625 -6.40625 C 6.390625 -6.050781 6.320313 -5.710938 6.1875 -5.390625 C 6.050781 -5.066406 5.804688 -4.6875 5.453125 -4.25 C 5.347656 -4.132813 5.035156 -3.804688 4.515625 -3.265625 C 3.992188 -2.722656 3.253906 -1.96875 2.296875 -1 Z M 2.296875 -1 "/>
</symbol>
<symbol overflow="visible" id="qpxpSE2q5-4">
<path style="stroke:none;" d="M 1.296875 -8.75 L 5.9375 -8.75 L 5.9375 -7.75 L 2.375 -7.75 L 2.375 -5.609375 C 2.550781 -5.671875 2.722656 -5.710938 2.890625 -5.734375 C 3.066406 -5.765625 3.238281 -5.78125 3.40625 -5.78125 C 4.382813 -5.78125 5.160156 -5.507813 5.734375 -4.96875 C 6.304688 -4.4375 6.59375 -3.71875 6.59375 -2.8125 C 6.59375 -1.863281 6.296875 -1.128906 5.703125 -0.609375 C 5.117188 -0.0859375 4.296875 0.171875 3.234375 0.171875 C 2.859375 0.171875 2.476563 0.140625 2.09375 0.078125 C 1.71875 0.015625 1.328125 -0.078125 0.921875 -0.203125 L 0.921875 -1.390625 C 1.273438 -1.203125 1.640625 -1.0625 2.015625 -0.96875 C 2.390625 -0.875 2.785156 -0.828125 3.203125 -0.828125 C 3.878906 -0.828125 4.414063 -1.003906 4.8125 -1.359375 C 5.207031 -1.710938 5.40625 -2.195313 5.40625 -2.8125 C 5.40625 -3.414063 5.207031 -3.894531 4.8125 -4.25 C 4.414063 -4.601563 3.878906 -4.78125 3.203125 -4.78125 C 2.890625 -4.78125 2.570313 -4.742188 2.25 -4.671875 C 1.9375 -4.609375 1.617188 -4.503906 1.296875 -4.359375 Z M 1.296875 -8.75 "/>
</symbol>
<symbol overflow="visible" id="qpxpSE2q6-0">
<path style="stroke:none;" d="M 0.59375 2.125 L 0.59375 -8.46875 L 6.59375 -8.46875 L 6.59375 2.125 Z M 1.265625 1.453125 L 5.9375 1.453125 L 5.9375 -7.78125 L 1.265625 -7.78125 Z M 1.265625 1.453125 "/>
</symbol>
<symbol overflow="visible" id="qpxpSE2q6-1">
<path style="stroke:none;" d="M 3.8125 -7.96875 C 3.207031 -7.96875 2.75 -7.664063 2.4375 -7.0625 C 2.132813 -6.46875 1.984375 -5.566406 1.984375 -4.359375 C 1.984375 -3.160156 2.132813 -2.257813 2.4375 -1.65625 C 2.75 -1.0625 3.207031 -0.765625 3.8125 -0.765625 C 4.425781 -0.765625 4.882813 -1.0625 5.1875 -1.65625 C 5.5 -2.257813 5.65625 -3.160156 5.65625 -4.359375 C 5.65625 -5.566406 5.5 -6.46875 5.1875 -7.0625 C 4.882813 -7.664063 4.425781 -7.96875 3.8125 -7.96875 Z M 3.8125 -8.90625 C 4.789063 -8.90625 5.539063 -8.515625 6.0625 -7.734375 C 6.582031 -6.960938 6.84375 -5.835938 6.84375 -4.359375 C 6.84375 -2.890625 6.582031 -1.765625 6.0625 -0.984375 C 5.539063 -0.210938 4.789063 0.171875 3.8125 0.171875 C 2.832031 0.171875 2.082031 -0.210938 1.5625 -0.984375 C 1.050781 -1.765625 0.796875 -2.890625 0.796875 -4.359375 C 0.796875 -5.835938 1.050781 -6.960938 1.5625 -7.734375 C 2.082031 -8.515625 2.832031 -8.90625 3.8125 -8.90625 Z M 3.8125 -8.90625 "/>
</symbol>
<symbol overflow="visible" id="qpxpSE2q7-0">
<path style="stroke:none;" d="M 0.59375 2.125 L 0.59375 -8.46875 L 6.59375 -8.46875 L 6.59375 2.125 Z M 1.265625 1.453125 L 5.9375 1.453125 L 5.9375 -7.78125 L 1.265625 -7.78125 Z M 1.265625 1.453125 "/>
</symbol>
<symbol overflow="visible" id="qpxpSE2q7-1">
<path style="stroke:none;" d="M 0.984375 -8.75 L 6.609375 -8.75 L 6.609375 -8.25 L 3.4375 0 L 2.203125 0 L 5.1875 -7.75 L 0.984375 -7.75 Z M 0.984375 -8.75 "/>
</symbol>
<symbol overflow="visible" id="qpxpSE2q7-2">
<path style="stroke:none;" d="M 1.28125 -1.484375 L 2.515625 -1.484375 L 2.515625 0 L 1.28125 0 Z M 1.28125 -1.484375 "/>
</symbol>
<symbol overflow="visible" id="qpxpSE2q7-3">
<path style="stroke:none;" d="M 1.296875 -8.75 L 5.9375 -8.75 L 5.9375 -7.75 L 2.375 -7.75 L 2.375 -5.609375 C 2.550781 -5.671875 2.722656 -5.710938 2.890625 -5.734375 C 3.066406 -5.765625 3.238281 -5.78125 3.40625 -5.78125 C 4.382813 -5.78125 5.160156 -5.507813 5.734375 -4.96875 C 6.304688 -4.4375 6.59375 -3.71875 6.59375 -2.8125 C 6.59375 -1.863281 6.296875 -1.128906 5.703125 -0.609375 C 5.117188 -0.0859375 4.296875 0.171875 3.234375 0.171875 C 2.859375 0.171875 2.476563 0.140625 2.09375 0.078125 C 1.71875 0.015625 1.328125 -0.078125 0.921875 -0.203125 L 0.921875 -1.390625 C 1.273438 -1.203125 1.640625 -1.0625 2.015625 -0.96875 C 2.390625 -0.875 2.785156 -0.828125 3.203125 -0.828125 C 3.878906 -0.828125 4.414063 -1.003906 4.8125 -1.359375 C 5.207031 -1.710938 5.40625 -2.195313 5.40625 -2.8125 C 5.40625 -3.414063 5.207031 -3.894531 4.8125 -4.25 C 4.414063 -4.601563 3.878906 -4.78125 3.203125 -4.78125 C 2.890625 -4.78125 2.570313 -4.742188 2.25 -4.671875 C 1.9375 -4.609375 1.617188 -4.503906 1.296875 -4.359375 Z M 1.296875 -8.75 "/>
</symbol>
</g>
</defs>
<g id="surface1">
<rect x="0" y="0" width="600" height="450" style="fill:rgb(100%,100%,100%);fill-opacity:1;stroke:none;"/>
<path style=" stroke:none;fill-rule:nonzero;fill:rgb(100%,100%,100%);fill-opacity:1;" d="M 41.25 417.75 L 588 417.75 L 588 12 L 41.25 12 Z M 41.25 417.75 "/>
<path style="fill:none;stroke-width:1;stroke-linecap:butt;stroke-linejoin:miter;stroke:rgb(0%,0%,0%);stroke-opacity:0.12;stroke-miterlimit:10;" d="M 84.151042 557 L 84.151042 16 " transform="matrix(0.75,0,0,0.75,0,0)"/>
<path style="fill:none;stroke-width:1;stroke-linecap:butt;stroke-linejoin:miter;stroke:rgb(0%,0%,0%);stroke-opacity:0.12;stroke-miterlimit:10;" d="M 416.182292 557 L 416.182292 16 " transform="matrix(0.75,0,0,0.75,0,0)"/>
<path style="fill:none;stroke-width:1;stroke-linecap:butt;stroke-linejoin:miter;stroke:rgb(0%,0%,0%);stroke-opacity:0.12;stroke-miterlimit:10;" d="M 748.208333 557 L 748.208333 16 " transform="matrix(0.75,0,0,0.75,0,0)"/>
<path style="fill:none;stroke-width:1;stroke-linecap:butt;stroke-linejoin:miter;stroke:rgb(0%,0%,0%);stroke-opacity:0.12;stroke-miterlimit:10;" d="M 55 469.567708 L 784 469.567708 " transform="matrix(0.75,0,0,0.75,0,0)"/>
<path style="fill:none;stroke-width:1;stroke-linecap:butt;stroke-linejoin:miter;stroke:rgb(0%,0%,0%);stroke-opacity:0.12;stroke-miterlimit:10;" d="M 55 369.838542 L 784 369.838542 " transform="matrix(0.75,0,0,0.75,0,0)"/>
<path style="fill:none;stroke-width:1;stroke-linecap:butt;stroke-linejoin:miter;stroke:rgb(0%,0%,0%);stroke-opacity:0.12;stroke-miterlimit:10;" d="M 55 270.109375 L 784 270.109375 " transform="matrix(0.75,0,0,0.75,0,0)"/>
<path style="fill:none;stroke-width:1;stroke-linecap:butt;stroke-linejoin:miter;stroke:rgb(0%,0%,0%);stroke-opacity:0.12;stroke-miterlimit:10;" d="M 55 170.375 L 784 170.375 " transform="matrix(0.75,0,0,0.75,0,0)"/>
<path style="fill:none;stroke-width:1;stroke-linecap:butt;stroke-linejoin:miter;stroke:rgb(0%,0%,0%);stroke-opacity:0.12;stroke-miterlimit:10;" d="M 55 70.645833 L 784 70.645833 " transform="matrix(0.75,0,0,0.75,0,0)"/>
<g style="fill:rgb(0%,0%,0%);fill-opacity:1;">
  <use xlink:href="#qpxpSE2q0-1" x="59.695313" y="435.640625"/>
</g>
<g style="fill:rgb(0%,0%,0%);fill-opacity:1;">
  <use xlink:href="#qpxpSE2q1-1" x="304.832031" y="435.640625"/>
</g>
<g style="fill:rgb(0%,0%,0%);fill-opacity:1;">
  <use xlink:href="#qpxpSE2q2-1" x="312.464844" y="435.640625"/>
</g>
<g style="fill:rgb(0%,0%,0%);fill-opacity:1;">
  <use xlink:href="#qpxpSE2q3-1" x="549.839844" y="435.640625"/>
</g>
<g style="fill:rgb(0%,0%,0%);fill-opacity:1;">
  <use xlink:href="#qpxpSE2q1-2" x="557.472656" y="435.640625"/>
</g>
<g style="fill:rgb(0%,0%,0%);fill-opacity:1;">
  <use xlink:href="#qpxpSE2q3-2" x="565.109375" y="435.640625"/>
</g>
<g style="fill:rgb(0%,0%,0%);fill-opacity:1;">
  <use xlink:href="#qpxpSE2q4-1" x="11.5625" y="356.332031"/>
</g>
<g style="fill:rgb(0%,0%,0%);fill-opacity:1;">
  <use xlink:href="#qpxpSE2q0-2" x="15.890625" y="356.332031"/>
</g>
<g style="fill:rgb(0%,0%,0%);fill-opacity:1;">
  <use xlink:href="#qpxpSE2q0-3" x="23.523438" y="356.332031"/>
</g>
<g style="fill:rgb(0%,0%,0%);fill-opacity:1;">
  <use xlink:href="#qpxpSE2q0-4" x="27.339844" y="356.332031"/>
</g>
<g style="fill:rgb(0%,0%,0%);fill-opacity:1;">
  <use xlink:href="#qpxpSE2q5-1" x="15.503906" y="281.53125"/>
</g>
<g style="fill:rgb(0%,0%,0%);fill-opacity:1;">
  <use xlink:href="#qpxpSE2q5-2" x="23.136719" y="281.53125"/>
</g>
<g style="fill:rgb(0%,0%,0%);fill-opacity:1;">
  <use xlink:href="#qpxpSE2q6-1" x="26.953125" y="281.53125"/>
</g>
<g style="fill:rgb(0%,0%,0%);fill-opacity:1;">
  <use xlink:href="#qpxpSE2q5-3" x="15.890625" y="206.734375"/>
</g>
<g style="fill:rgb(0%,0%,0%);fill-opacity:1;">
  <use xlink:href="#qpxpSE2q5-2" x="23.523438" y="206.734375"/>
</g>
<g style="fill:rgb(0%,0%,0%);fill-opacity:1;">
  <use xlink:href="#qpxpSE2q5-4" x="27.339844" y="206.734375"/>
</g>
<g style="fill:rgb(0%,0%,0%);fill-opacity:1;">
  <use xlink:href="#qpxpSE2q5-4" x="15.503906" y="131.9375"/>
</g>
<g style="fill:rgb(0%,0%,0%);fill-opacity:1;">
  <use xlink:href="#qpxpSE2q5-2" x="23.136719" y="131.9375"/>
</g>
<g style="fill:rgb(0%,0%,0%);fill-opacity:1;">
  <use xlink:href="#qpxpSE2q6-1" x="26.953125" y="131.9375"/>
</g>
<g style="fill:rgb(0%,0%,0%);fill-opacity:1;">
  <use xlink:href="#qpxpSE2q7-1" x="15.890625" y="57.140625"/>
</g>
<g style="fill:rgb(0%,0%,0%);fill-opacity:1;">
  <use xlink:href="#qpxpSE2q7-2" x="23.523438" y="57.140625"/>
</g>
<g style="fill:rgb(0%,0%,0%);fill-opacity:1;">
  <use xlink:href="#qpxpSE2q7-3" x="27.339844" y="57.140625"/>
</g>
<path style="fill:none;stroke-width:1.5;stroke-linecap:round;stroke-linejoin:miter;stroke:rgb(100%,0%,0%);stroke-opacity:1;stroke-miterlimit:10;" d="M 90.791667 369.838542 L 90.791667 369.838542 " transform="matrix(0.75,0,0,0.75,0,0)"/>
<path style="fill:none;stroke-width:1.5;stroke-linecap:round;stroke-linejoin:miter;stroke:rgb(100%,0%,0%);stroke-opacity:1;stroke-miterlimit:10;" d="M 97.432292 432.302083 L 97.432292 378.286458 " transform="matrix(0.75,0,0,0.75,0,0)"/>
<path style="fill:none;stroke-width:1.5;stroke-linecap:round;stroke-linejoin:miter;stroke:rgb(100%,0%,0%);stroke-opacity:1;stroke-miterlimit:10;" d="M 104.072917 417.526042 L 104.072917 390.338542 " transform="matrix(0.75,0,0,0.75,0,0)"/>
<path style="fill:none;stroke-width:1.5;stroke-linecap:round;stroke-linejoin:miter;stroke:rgb(0%,50.196081%,0%);stroke-opacity:1;stroke-miterlimit:10;" d="M 110.713542 411.958333 L 110.713542 365.708333 " transform="matrix(0.75,0,0,0.75,0,0)"/>
<path style="fill:none;stroke-width:1.5;stroke-linecap:round;stroke-linejoin:miter;stroke:rgb(100%,0%,0%);stroke-opacity:1;stroke-miterlimit:10;" d="M 117.354167 437.369792 L 117.354167 365.651042 " transform="matrix(0.75,0,0,0.75,0,0)"/>
<path style="fill:none;stroke-width:1.5;stroke-linecap:round;stroke-linejoin:miter;stroke:rgb(100%,0%,0%);stroke-opacity:1;stroke-miterlimit:10;" d="M 123.994792 437.489583 L 123.994792 362.916667 " transform="matrix(0.75,0,0,0.75,0,0)"/>
<path style="fill:none;stroke-width:1.5;stroke-linecap:round;stroke-linejoin:miter;stroke:rgb(0%,50.196081%,0%);stroke-opacity:1;stroke-miterlimit:10;" d="M 130.635417 420.083333 L 130.635417 351.604167 " transform="matrix(0.75,0,0,0.75,0,0)"/>
<path style="fill:none;stroke-width:1.5;stroke-linecap:round;stroke-linejoin:miter;stroke:rgb(0%,50.196081%,0%);stroke-opacity:1;stroke-miterlimit:10;" d="M 137.276042 356.458333 L 137.276042 317.364583 " transform="matrix(0.75,0,0,0.75,0,0)"/>
<path style="fill:none;stroke-width:1.5;stroke-linecap:round;stroke-linejoin:miter;stroke:rgb(100%,0%,0%);stroke-opacity:1;stroke-miterlimit:10;" d="M 143.916667 422.21875 L 143.916667 290.9375 " transform="matrix(0.75,0,0,0.75,0,0)"/>
<path style="fill:none;stroke-width:1.5;stroke-linecap:round;stroke-linejoin:miter;stroke:rgb(100%,0%,0%);stroke-opacity:1;stroke-miterlimit:10;" d="M 150.557292 497.223958 L 150.557292 347.770833 " transform="matrix(0.75,0,0,0.75,0,0)"/>
<path style="fill:none;stroke-width:1.5;stroke-linecap:round;stroke-linejoin:miter;stroke:rgb(0%,50.196081%,0%);stroke-opacity:1;stroke-miterlimit:10;" d="M 157.197917 502.177083 L 157.197917 396.630208 " transform="matrix(0.75,0,0,0.75,0,0)"/>
<path style="fill:none;stroke-width:1.5;stroke-linecap:round;stroke-linejoin:miter;stroke:rgb(0%,50.196081%,0%);stroke-opacity:1;stroke-miterlimit:10;" d="M 163.838542 420.03125 L 163.838542 359.03125 " transform="matrix(0.75,0,0,0.75,0,0)"/>
<path style="fill:none;stroke-width:1.5;stroke-linecap:round;stroke-linejoin:miter;stroke:rgb(100%,0%,0%);stroke-opacity:1;stroke-miterlimit:10;" d="M 170.479167 471.15625 L 170.479167 366.911458 " transform="matrix(0.75,0,0,0.75,0,0)"/>
<path style="fill:none;stroke-width:1.5;stroke-linecap:round;stroke-linejoin:miter;stroke:rgb(0%,50.196081%,0%);stroke-opacity:1;stroke-miterlimit:10;" d="M 177.119792 447.541667 L 177.119792 340.401042 " transform="matrix(0.75,0,0,0.75,0,0)"/>
<path style="fill:none;stroke-width:1.5;stroke-linecap:round;stroke-linejoin:miter;stroke:rgb(100%,0%,0%);stroke-opacity:1;stroke-miterlimit:10;" d="M 183.760417 463.729167 L 183.760417 351.307292 " transform="matrix(0.75,0,0,0.75,0,0)"/>
<path style="fill:none;stroke-width:1.5;stroke-linecap:round;stroke-linejoin:miter;stroke:rgb(100%,0%,0%);stroke-opacity:1;stroke-miterlimit:10;" d="M 190.401042 532.411458 L 190.401042 435.177083 " transform="matrix(0.75,0,0,0.75,0,0)"/>
<path style="fill:none;stroke-width:1.5;stroke-linecap:round;stroke-linejoin:miter;stroke:rgb(0%,50.196081%,0%);stroke-opacity:1;stroke-miterlimit:10;" d="M 197.041667 486.817708 L 197.041667 459.489583 " transform="matrix(0.75,0,0,0.75,0,0)"/>
<path style="fill:none;stroke-width:1.5;stroke-linecap:round;stroke-linejoin:miter;stroke:rgb(100%,0%,0%);stroke-opacity:1;stroke-miterlimit:10;" d="M 203.682292 490.744792 L 203.682292 424.625 " transform="matrix(0.75,0,0,0.75,0,0)"/>
<path style="fill:none;stroke-width:1.5;stroke-linecap:round;stroke-linejoin:miter;stroke:rgb(0%,50.196081%,0%);stroke-opacity:1;stroke-miterlimit:10;" d="M 210.322917 528.03125 L 210.322917 441.307292 " transform="matrix(0.75,0,0,0.75,0,0)"/>
<path style="fill:none;stroke-width:1.5;stroke-linecap:round;stroke-linejoin:miter;stroke:rgb(0%,50.196081%,0%);stroke-opacity:1;stroke-miterlimit:10;" d="M 216.963542 499.114583 L 216.963542 428.604167 " transform="matrix(0.75,0,0,0.75,0,0)"/>
<path style="fill:none;stroke-width:1.5;stroke-linecap:round;stroke-linejoin:miter;stroke:rgb(100%,0%,0%);stroke-opacity:1;stroke-miterlimit:10;" d="M 223.604167 483.020833 L 223.604167 463.619792 " transform="matrix(0.75,0,0,0.75,0,0)"/>
<path style="fill:none;stroke-width:1.5;stroke-linecap:round;stroke-linejoin:miter;stroke:rgb(0%,50.196081%,0%);stroke-opacity:1;stroke-miterlimit:10;" d="M 230.244792 486.994792 L 230.244792 424.3125 " transform="matrix(0.75,0,0,0.75,0,0)"/>
<path style="fill:none;stroke-width:1.5;stroke-linecap:round;stroke-linejoin:miter;stroke:rgb(100%,0%,0%);stroke-opacity:1;stroke-miterlimit:10;" d="M 236.885417 482.088542 L 236.885417 410.692708 " transform="matrix(0.75,0,0,0.75,0,0)"/>
<path style="fill:none;stroke-width:1.5;stroke-linecap:round;stroke-linejoin:miter;stroke:rgb(0%,50.196081%,0%);stroke-opacity:1;stroke-miterlimit:10;" d="M 243.526042 454.390625 L 243.526042 378.713542 " transform="matrix(0.75,0,0,0.75,0,0)"/>
<path style="fill:none;stroke-width:1.5;stroke-linecap:round;stroke-linejoin:miter;stroke:rgb(100%,0%,0%);stroke-opacity:1;stroke-miterlimit:10;" d="M 250.166667 398.515625 L 250.166667 364.526042 " transform="matrix(0.75,0,0,0.75,0,0)"/>
<path style="fill:none;stroke-width:1.5;stroke-linecap:round;stroke-linejoin:miter;stroke:rgb(0%,50.196081%,0%);stroke-opacity:1;stroke-miterlimit:10;" d="M 256.807292 402 L 256.807292 305.322917 " transform="matrix(0.75,0,0,0.75,0,0)"/>
<path style="fill:none;stroke-width:1.5;stroke-linecap:round;stroke-linejoin:miter;stroke:rgb(0%,50.196081%,0%);stroke-opacity:1;stroke-miterlimit:10;" d="M 263.447917 328.916667 L 263.447917 256.635417 " transform="matrix(0.75,0,0,0.75,0,0)"/>
<path style="fill:none;stroke-width:1.5;stroke-linecap:round;stroke-linejoin:miter;stroke:rgb(100%,0%,0%);stroke-opacity:1;stroke-miterlimit:10;" d="M 270.088542 350.994792 L 270.088542 267.854167 " transform="matrix(0.75,0,0,0.75,0,0)"/>
<path style="fill:none;stroke-width:1.5;stroke-linecap:round;stroke-linejoin:miter;stroke:rgb(0%,50.196081%,0%);stroke-opacity:1;stroke-miterlimit:10;" d="M 276.729167 363.291667 L 276.729167 266.239583 " transform="matrix(0.75,0,0,0.75,0,0)"/>
<path style="fill:none;stroke-width:1.5;stroke-linecap:round;stroke-linejoin:miter;stroke:rgb(100%,0%,0%);stroke-opacity:1;stroke-miterlimit:10;" d="M 283.369792 308.302083 L 283.369792 288.979167 " transform="matrix(0.75,0,0,0.75,0,0)"/>
<path style="fill:none;stroke-width:1.5;stroke-linecap:round;stroke-linejoin:miter;stroke:rgb(100%,0%,0%);stroke-opacity:1;stroke-miterlimit:10;" d="M 290.010417 350 L 290.010417 294.458333 " transform="matrix(0.75,0,0,0.75,0,0)"/>
<path style="fill:none;stroke-width:1.5;stroke-linecap:round;stroke-linejoin:miter;stroke:rgb(100%,0%,0%);stroke-opacity:1;stroke-miterlimit:10;" d="M 296.651042 397.796875 L 296.651042 298.453125 " transform="matrix(0.75,0,0,0.75,0,0)"/>
<path style="fill:none;stroke-width:1.5;stroke-linecap:round;stroke-linejoin:miter;stroke:rgb(0%,50.196081%,0%);stroke-opacity:1;stroke-miterlimit:10;" d="M 303.291667 386.453125 L 303.291667 330.510417 " transform="matrix(0.75,0,0,0.75,0,0)"/>
<path style="fill:none;stroke-width:1.5;stroke-linecap:round;stroke-linejoin:miter;stroke:rgb(100%,0%,0%);stroke-opacity:1;stroke-miterlimit:10;" d="M 309.932292 405.135417 L 309.932292 349.067708 " transform="matrix(0.75,0,0,0.75,0,0)"/>
<path style="fill:none;stroke-width:1.5;stroke-linecap:round;stroke-linejoin:miter;stroke:rgb(0%,50.196081%,0%);stroke-opacity:1;stroke-miterlimit:10;" d="M 316.572917 409.458333 L 316.572917 366.453125 " transform="matrix(0.75,0,0,0.75,0,0)"/>
<path style="fill:none;stroke-width:1.5;stroke-linecap:round;stroke-linejoin:miter;stroke:rgb(0%,50.196081%,0%);stroke-opacity:1;stroke-miterlimit:10;" d="M 323.213542 412.973958 L 323.213542 292.182292 " transform="matrix(0.75,0,0,0.75,0,0)"/>
<path style="fill:none;stroke-width:1.5;stroke-linecap:round;stroke-linejoin:miter;stroke:rgb(0%,50.196081%,0%);stroke-opacity:1;stroke-miterlimit:10;" d="M 329.854167 364.104167 L 329.854167 287.703125 " transform="matrix(0.75,0,0,0.75,0,0)"/>
<path style="fill:none;stroke-width:1.5;stroke-linecap:round;stroke-linejoin:miter;stroke:rgb(100%,0%,0%);stroke-opacity:1;stroke-miterlimit:10;" d="M 336.494792 375.734375 L 336.494792 298.40625 " transform="matrix(0.75,0,0,0.75,0,0)"/>
<path style="fill:none;stroke-width:1.5;stroke-linecap:round;stroke-linejoin:miter;stroke:rgb(0%,50.196081%,0%);stroke-opacity:1;stroke-miterlimit:10;" d="M 343.135417 341.744792 L 343.135417 261.291667 " transform="matrix(0.75,0,0,0.75,0,0)"/>
<path style="fill:none;stroke-width:1.5;stroke-linecap:round;stroke-linejoin:miter;stroke:rgb(0%,50.196081%,0%);stroke-opacity:1;stroke-miterlimit:10;" d="M 349.776042 329.34375 L 349.776042 254.182292 " transform="matrix(0.75,0,0,0.75,0,0)"/>
<path style="fill:none;stroke-width:1.5;stroke-linecap:round;stroke-linejoin:miter;stroke:rgb(0%,50.196081%,0%);stroke-opacity:1;stroke-miterlimit:10;" d="M 356.416667 289.088542 L 356.416667 228.557292 " transform="matrix(0.75,0,0,0.75,0,0)"/>
<path style="fill:none;stroke-width:1.5;stroke-linecap:round;stroke-linejoin:miter;stroke:rgb(0%,50.196081%,0%);stroke-opacity:1;stroke-miterlimit:10;" d="M 363.057292 255.036458 L 363.057292 173.578125 " transform="matrix(0.75,0,0,0.75,0,0)"/>
<path style="fill:none;stroke-width:1.5;stroke-linecap:round;stroke-linejoin:miter;stroke:rgb(0%,50.196081%,0%);stroke-opacity:1;stroke-miterlimit:10;" d="M 369.697917 197.817708 L 369.697917 181.510417 " transform="matrix(0.75,0,0,0.75,0,0)"/>
<path style="fill:none;stroke-width:1.5;stroke-linecap:round;stroke-linejoin:miter;stroke:rgb(0%,50.196081%,0%);stroke-opacity:1;stroke-miterlimit:10;" d="M 376.338542 199.208333 L 376.338542 145.963542 " transform="matrix(0.75,0,0,0.75,0,0)"/>
<path style="fill:none;stroke-width:1.5;stroke-linecap:round;stroke-linejoin:miter;stroke:rgb(0%,50.196081%,0%);stroke-opacity:1;stroke-miterlimit:10;" d="M 382.979167 176.151042 L 382.979167 144.276042 " transform="matrix(0.75,0,0,0.75,0,0)"/>
<path style="fill:none;stroke-width:1.5;stroke-linecap:round;stroke-linejoin:miter;stroke:rgb(100%,0%,0%);stroke-opacity:1;stroke-miterlimit:10;" d="M 389.619792 193.916667 L 389.619792 134.625 " transform="matrix(0.75,0,0,0.75,0,0)"/>
<path style="fill:none;stroke-width:1.5;stroke-linecap:round;stroke-linejoin:miter;stroke:rgb(0%,50.196081%,0%);stroke-opacity:1;stroke-miterlimit:10;" d="M 396.260417 204.265625 L 396.260417 166.005208 " transform="matrix(0.75,0,0,0.75,0,0)"/>
<path style="fill:none;stroke-width:1.5;stroke-linecap:round;stroke-linejoin:miter;stroke:rgb(100%,0%,0%);stroke-opacity:1;stroke-miterlimit:10;" d="M 402.901042 245.447917 L 402.901042 148.125 " transform="matrix(0.75,0,0,0.75,0,0)"/>
<path style="fill:none;stroke-width:1.5;stroke-linecap:round;stroke-linejoin:miter;stroke:rgb(100%,0%,0%);stroke-opacity:1;stroke-miterlimit:10;" d="M 409.541667 267.166667 L 409.541667 213.953125 " transform="matrix(0.75,0,0,0.75,0,0)"/>
<path style="fill:none;stroke-width:1.5;stroke-linecap:round;stroke-linejoin:miter;stroke:rgb(100%,0%,0%);stroke-opacity:1;stroke-miterlimit:10;" d="M 416.182292 348.947917 L 416.182292 258.135417 " transform="matrix(0.75,0,0,0.75,0,0)"/>
<path style="fill:none;stroke-width:1.5;stroke-linecap:round;stroke-linejoin:miter;stroke:rgb(0%,50.196081%,0%);stroke-opacity:1;stroke-miterlimit:10;" d="M 422.817708 321.197917 L 422.817708 275.28125 " transform="matrix(0.75,0,0,0.75,0,0)"/>
<path style="fill:none;stroke-width:1.5;stroke-linecap:round;stroke-linejoin:miter;stroke:rgb(100%,0%,0%);stroke-opacity:1;stroke-miterlimit:10;" d="M 429.458333 331.776042 L 429.458333 279.416667 " transform="matrix(0.75,0,0,0.75,0,0)"/>
<path style="fill:none;stroke-width:1.5;stroke-linecap:round;stroke-linejoin:miter;stroke:rgb(0%,50.196081%,0%);stroke-opacity:1;stroke-miterlimit:10;" d="M 436.098958 355.203125 L 436.098958 260.041667 " transform="matrix(0.75,0,0,0.75,0,0)"/>
<path style="fill:none;stroke-width:1.5;stroke-linecap:round;stroke-linejoin:miter;stroke:rgb(100%,0%,0%);stroke-opacity:1;stroke-miterlimit:10;" d="M 442.739583 395.375 L 442.739583 292.947917 " transform="matrix(0.75,0,0,0.75,0,0)"/>
<path style="fill:none;stroke-width:1.5;stroke-linecap:round;stroke-linejoin:miter;stroke:rgb(100%,0%,0%);stroke-opacity:1;stroke-miterlimit:10;" d="M 449.380208 417.770833 L 449.380208 344.197917 " transform="matrix(0.75,0,0,0.75,0,0)"/>
<path style="fill:none;stroke-width:1.5;stroke-linecap:round;stroke-linejoin:miter;stroke:rgb(100%,0%,0%);stroke-opacity:1;stroke-miterlimit:10;" d="M 456.020833 467.96875 L 456.020833 398.541667 " transform="matrix(0.75,0,0,0.75,0,0)"/>
<path style="fill:none;stroke-width:1.5;stroke-linecap:round;stroke-linejoin:miter;stroke:rgb(100%,0%,0%);stroke-opacity:1;stroke-miterlimit:10;" d="M 462.661458 457.026042 L 462.661458 397.3125 " transform="matrix(0.75,0,0,0.75,0,0)"/>
<path style="fill:none;stroke-width:1.5;stroke-linecap:round;stroke-linejoin:miter;stroke:rgb(100%,0%,0%);stroke-opacity:1;stroke-miterlimit:10;" d="M 469.302083 485.817708 L 469.302083 423.666667 " transform="matrix(0.75,0,0,0.75,0,0)"/>
<path style="fill:none;stroke-width:1.5;stroke-linecap:round;stroke-linejoin:miter;stroke:rgb(100%,0%,0%);stroke-opacity:1;stroke-miterlimit:10;" d="M 475.942708 495.541667 L 475.942708 419.015625 " transform="matrix(0.75,0,0,0.75,0,0)"/>
<path style="fill:none;stroke-width:1.5;stroke-linecap:round;stroke-linejoin:miter;stroke:rgb(0%,50.196081%,0%);stroke-opacity:1;stroke-miterlimit:10;" d="M 482.583333 487.328125 L 482.583333 410.119792 " transform="matrix(0.75,0,0,0.75,0,0)"/>
<path style="fill:none;stroke-width:1.5;stroke-linecap:round;stroke-linejoin:miter;stroke:rgb(100%,0%,0%);stroke-opacity:1;stroke-miterlimit:10;" d="M 489.223958 454.927083 L 489.223958 407.614583 " transform="matrix(0.75,0,0,0.75,0,0)"/>
<path style="fill:none;stroke-width:1.5;stroke-linecap:round;stroke-linejoin:miter;stroke:rgb(100%,0%,0%);stroke-opacity:1;stroke-miterlimit:10;" d="M 495.864583 481.010417 L 495.864583 432.973958 " transform="matrix(0.75,0,0,0.75,0,0)"/>
<path style="fill:none;stroke-width:1.5;stroke-linecap:round;stroke-linejoin:miter;stroke:rgb(0%,50.196081%,0%);stroke-opacity:1;stroke-miterlimit:10;" d="M 502.505208 467.4375 L 502.505208 430.380208 " transform="matrix(0.75,0,0,0.75,0,0)"/>
<path style="fill:none;stroke-width:1.5;stroke-linecap:round;stroke-linejoin:miter;stroke:rgb(0%,50.196081%,0%);stroke-opacity:1;stroke-miterlimit:10;" d="M 509.145833 464.75 L 509.145833 316.447917 " transform="matrix(0.75,0,0,0.75,0,0)"/>
<path style="fill:none;stroke-width:1.5;stroke-linecap:round;stroke-linejoin:miter;stroke:rgb(0%,50.196081%,0%);stroke-opacity:1;stroke-miterlimit:10;" d="M 515.786458 350.838542 L 515.786458 285.973958 " transform="matrix(0.75,0,0,0.75,0,0)"/>
<path style="fill:none;stroke-width:1.5;stroke-linecap:round;stroke-linejoin:miter;stroke:rgb(100%,0%,0%);stroke-opacity:1;stroke-miterlimit:10;" d="M 522.427083 421 L 522.427083 307.364583 " transform="matrix(0.75,0,0,0.75,0,0)"/>
<path style="fill:none;stroke-width:1.5;stroke-linecap:round;stroke-linejoin:miter;stroke:rgb(0%,50.196081%,0%);stroke-opacity:1;stroke-miterlimit:10;" d="M 529.067708 425.526042 L 529.067708 321.229167 " transform="matrix(0.75,0,0,0.75,0,0)"/>
<path style="fill:none;stroke-width:1.5;stroke-linecap:round;stroke-linejoin:miter;stroke:rgb(100%,0%,0%);stroke-opacity:1;stroke-miterlimit:10;" d="M 535.708333 451.520833 L 535.708333 358.880208 " transform="matrix(0.75,0,0,0.75,0,0)"/>
<path style="fill:none;stroke-width:1.5;stroke-linecap:round;stroke-linejoin:miter;stroke:rgb(100%,0%,0%);stroke-opacity:1;stroke-miterlimit:10;" d="M 542.348958 448.848958 L 542.348958 374.161458 " transform="matrix(0.75,0,0,0.75,0,0)"/>
<path style="fill:none;stroke-width:1.5;stroke-linecap:round;stroke-linejoin:miter;stroke:rgb(0%,50.196081%,0%);stroke-opacity:1;stroke-miterlimit:10;" d="M 548.989583 435.078125 L 548.989583 380.65625 " transform="matrix(0.75,0,0,0.75,0,0)"/>
<path style="fill:none;stroke-width:1.5;stroke-linecap:round;stroke-linejoin:miter;stroke:rgb(0%,50.196081%,0%);stroke-opacity:1;stroke-miterlimit:10;" d="M 555.630208 423.703125 L 555.630208 386.208333 " transform="matrix(0.75,0,0,0.75,0,0)"/>
<path style="fill:none;stroke-width:1.5;stroke-linecap:round;stroke-linejoin:miter;stroke:rgb(0%,50.196081%,0%);stroke-opacity:1;stroke-miterlimit:10;" d="M 562.270833 408.286458 L 562.270833 332.619792 " transform="matrix(0.75,0,0,0.75,0,0)"/>
<path style="fill:none;stroke-width:1.5;stroke-linecap:round;stroke-linejoin:miter;stroke:rgb(100%,0%,0%);stroke-opacity:1;stroke-miterlimit:10;" d="M 568.911458 434.578125 L 568.911458 348.807292 " transform="matrix(0.75,0,0,0.75,0,0)"/>
<path style="fill:none;stroke-width:1.5;stroke-linecap:round;stroke-linejoin:miter;stroke:rgb(0%,50.196081%,0%);stroke-opacity:1;stroke-miterlimit:10;" d="M 575.552083 437.817708 L 575.552083 338.401042 " transform="matrix(0.75,0,0,0.75,0,0)"/>
<path style="fill:none;stroke-width:1.5;stroke-linecap:round;stroke-linejoin:miter;stroke:rgb(0%,50.196081%,0%);stroke-opacity:1;stroke-miterlimit:10;" d="M 582.192708 374.854167 L 582.192708 335.770833 " transform="matrix(0.75,0,0,0.75,0,0)"/>
<path style="fill:none;stroke-width:1.5;stroke-linecap:round;stroke-linejoin:miter;stroke:rgb(100%,0%,0%);stroke-opacity:1;stroke-miterlimit:10;" d="M 588.833333 370 L 588.833333 316.729167 " transform="matrix(0.75,0,0,0.75,0,0)"/>
<path style="fill:none;stroke-width:1.5;stroke-linecap:round;stroke-linejoin:miter;stroke:rgb(100%,0%,0%);stroke-opacity:1;stroke-miterlimit:10;" d="M 595.473958 364.833333 L 595.473958 304.026042 " transform="matrix(0.75,0,0,0.75,0,0)"/>
<path style="fill:none;stroke-width:1.5;stroke-linecap:round;stroke-linejoin:miter;stroke:rgb(0%,50.196081%,0%);stroke-opacity:1;stroke-miterlimit:10;" d="M 602.114583 387.3125 L 602.114583 245.25 " transform="matrix(0.75,0,0,0.75,0,0)"/>
<path style="fill:none;stroke-width:1.5;stroke-linecap:round;stroke-linejoin:miter;stroke:rgb(100%,0%,0%);stroke-opacity:1;stroke-miterlimit:10;" d="M 608.755208 282.322917 L 608.755208 232.640625 " transform="matrix(0.75,0,0,0.75,0,0)"/>
<path style="fill:none;stroke-width:1.5;stroke-linecap:round;stroke-linejoin:miter;stroke:rgb(100%,0%,0%);stroke-opacity:1;stroke-miterlimit:10;" d="M 615.395833 327.135417 L 615.395833 268.401042 " transform="matrix(0.75,0,0,0.75,0,0)"/>
<path style="fill:none;stroke-width:1.5;stroke-linecap:round;stroke-linejoin:miter;stroke:rgb(0%,50.196081%,0%);stroke-opacity:1;stroke-miterlimit:10;" d="M 622.036458 362.963542 L 622.036458 272.223958 " transform="matrix(0.75,0,0,0.75,0,0)"/>
<path style="fill:none;stroke-width:1.5;stroke-linecap:round;stroke-linejoin:miter;stroke:rgb(0%,50.196081%,0%);stroke-opacity:1;stroke-miterlimit:10;" d="M 628.677083 338.895833 L 628.677083 287.864583 " transform="matrix(0.75,0,0,0.75,0,0)"/>
<path style="fill:none;stroke-width:1.5;stroke-linecap:round;stroke-linejoin:miter;stroke:rgb(0%,50.196081%,0%);stroke-opacity:1;stroke-miterlimit:10;" d="M 635.317708 284.604167 L 635.317708 237.65625 " transform="matrix(0.75,0,0,0.75,0,0)"/>
<path style="fill:none;stroke-width:1.5;stroke-linecap:round;stroke-linejoin:miter;stroke:rgb(0%,50.196081%,0%);stroke-opacity:1;stroke-miterlimit:10;" d="M 641.958333 296.75 L 641.958333 224.166667 " transform="matrix(0.75,0,0,0.75,0,0)"/>
<path style="fill:none;stroke-width:1.5;stroke-linecap:round;stroke-linejoin:miter;stroke:rgb(100%,0%,0%);stroke-opacity:1;stroke-miterlimit:10;" d="M 648.598958 285.369792 L 648.598958 239.890625 " transform="matrix(0.75,0,0,0.75,0,0)"/>
<path style="fill:none;stroke-width:1.5;stroke-linecap:round;stroke-linejoin:miter;stroke:rgb(0%,50.196081%,0%);stroke-opacity:1;stroke-miterlimit:10;" d="M 655.239583 286.588542 L 655.239583 233.411458 " transform="matrix(0.75,0,0,0.75,0,0)"/>
<path style="fill:none;stroke-width:1.5;stroke-linecap:round;stroke-linejoin:miter;stroke:rgb(0%,50.196081%,0%);stroke-opacity:1;stroke-miterlimit:10;" d="M 661.880208 267.458333 L 661.880208 198.5 " transform="matrix(0.75,0,0,0.75,0,0)"/>
<path style="fill:none;stroke-width:1.5;stroke-linecap:round;stroke-linejoin:miter;stroke:rgb(0%,50.196081%,0%);stroke-opacity:1;stroke-miterlimit:10;" d="M 668.520833 247.385417 L 668.520833 217 " transform="matrix(0.75,0,0,0.75,0,0)"/>
<path style="fill:none;stroke-width:1.5;stroke-linecap:round;stroke-linejoin:miter;stroke:rgb(0%,50.196081%,0%);stroke-opacity:1;stroke-miterlimit:10;" d="M 675.161458 219.75 L 675.161458 178.625 " transform="matrix(0.75,0,0,0.75,0,0)"/>
<path style="fill:none;stroke-width:1.5;stroke-linecap:round;stroke-linejoin:miter;stroke:rgb(0%,50.196081%,0%);stroke-opacity:1;stroke-miterlimit:10;" d="M 681.802083 214.515625 L 681.802083 162.255208 " transform="matrix(0.75,0,0,0.75,0,0)"/>
<path style="fill:none;stroke-width:1.5;stroke-linecap:round;stroke-linejoin:miter;stroke:rgb(100%,0%,0%);stroke-opacity:1;stroke-miterlimit:10;" d="M 688.442708 290.838542 L 688.442708 177.375 " transform="matrix(0.75,0,0,0.75,0,0)"/>
<path style="fill:none;stroke-width:1.5;stroke-linecap:round;stroke-linejoin:miter;stroke:rgb(0%,50.196081%,0%);stroke-opacity:1;stroke-miterlimit:10;" d="M 695.083333 287.895833 L 695.083333 213.369792 " transform="matrix(0.75,0,0,0.75,0,0)"/>
<path style="fill:none;stroke-width:1.5;stroke-linecap:round;stroke-linejoin:miter;stroke:rgb(100%,0%,0%);stroke-opacity:1;stroke-miterlimit:10;" d="M 701.723958 266.765625 L 701.723958 189.723958 " transform="matrix(0.75,0,0,0.75,0,0)"/>
<path style="fill:none;stroke-width:1.5;stroke-linecap:round;stroke-linejoin:miter;stroke:rgb(100%,0%,0%);stroke-opacity:1;stroke-miterlimit:10;" d="M 708.364583 246.390625 L 708.364583 185.5 " transform="matrix(0.75,0,0,0.75,0,0)"/>
<path style="fill:none;stroke-width:1.5;stroke-linecap:round;stroke-linejoin:miter;stroke:rgb(0%,50.196081%,0%);stroke-opacity:1;stroke-miterlimit:10;" d="M 715.005208 244.145833 L 715.005208 204.026042 " transform="matrix(0.75,0,0,0.75,0,0)"/>
<path style="fill:none;stroke-width:1.5;stroke-linecap:round;stroke-linejoin:miter;stroke:rgb(0%,50.196081%,0%);stroke-opacity:1;stroke-miterlimit:10;" d="M 721.645833 252.473958 L 721.645833 152.697917 " transform="matrix(0.75,0,0,0.75,0,0)"/>
<path style="fill:none;stroke-width:1.5;stroke-linecap:round;stroke-linejoin:miter;stroke:rgb(0%,50.196081%,0%);stroke-opacity:1;stroke-miterlimit:10;" d="M 728.286458 185.744792 L 728.286458 159.760417 " transform="matrix(0.75,0,0,0.75,0,0)"/>
<path style="fill:none;stroke-width:1.5;stroke-linecap:round;stroke-linejoin:miter;stroke:rgb(100%,0%,0%);stroke-opacity:1;stroke-miterlimit:10;" d="M 734.927083 176.385417 L 734.927083 140.260417 " transform="matrix(0.75,0,0,0.75,0,0)"/>
<path style="fill:none;stroke-width:1.5;stroke-linecap:round;stroke-linejoin:miter;stroke:rgb(0%,50.196081%,0%);stroke-opacity:1;stroke-miterlimit:10;" d="M 741.567708 163.817708 L 741.567708 132.046875 " transform="matrix(0.75,0,0,0.75,0,0)"/>
<path style="fill:none;stroke-width:1.5;stroke-linecap:round;stroke-linejoin:miter;stroke:rgb(0%,50.196081%,0%);stroke-opacity:1;stroke-miterlimit:10;" d="M 748.208333 166.09375 L 748.208333 40.588542 " transform="matrix(0.75,0,0,0.75,0,0)"/>
<path style=" stroke:none;fill-rule:nonzero;fill:rgb(100%,0%,0%);fill-opacity:1;" d="M 71.082031 316.59375 L 75.066406 316.59375 L 75.066406 293.734375 L 71.082031 293.734375 Z M 71.082031 316.59375 "/>
<path style=" stroke:none;fill-rule:nonzero;fill:rgb(100%,0%,0%);fill-opacity:1;" d="M 76.0625 310.644531 L 80.046875 310.644531 L 80.046875 303.269531 L 76.0625 303.269531 Z M 76.0625 310.644531 "/>
<path style=" stroke:none;fill-rule:nonzero;fill:rgb(0%,50.196081%,0%);fill-opacity:1;" d="M 81.042969 300.429688 L 85.027344 300.429688 L 85.027344 293.75 L 81.042969 293.75 Z M 81.042969 300.429688 "/>
<path style=" stroke:none;fill-rule:nonzero;fill:rgb(100%,0%,0%);fill-opacity:1;" d="M 86.023438 307.882813 L 90.007813 307.882813 L 90.007813 290.800781 L 86.023438 290.800781 Z M 86.023438 307.882813 "/>
<path style=" stroke:none;fill-rule:nonzero;fill:rgb(100%,0%,0%);fill-opacity:1;" d="M 91.003906 307.726563 L 94.988281 307.726563 L 94.988281 298.027344 L 91.003906 298.027344 Z M 91.003906 307.726563 "/>
<path style=" stroke:none;fill-rule:nonzero;fill:rgb(0%,50.196081%,0%);fill-opacity:1;" d="M 95.984375 302.15625 L 99.96875 302.15625 L 99.96875 270.480469 L 95.984375 270.480469 Z M 95.984375 302.15625 "/>
<path style=" stroke:none;fill-rule:nonzero;fill:rgb(0%,50.196081%,0%);fill-opacity:1;" d="M 100.964844 261.898438 L 104.949219 261.898438 L 104.949219 247.554688 L 100.964844 247.554688 Z M 100.964844 261.898438 "/>
<path style=" stroke:none;fill-rule:nonzero;fill:rgb(100%,0%,0%);fill-opacity:1;" d="M 105.945313 302.320313 L 109.929688 302.320313 L 109.929688 240.296875 L 105.945313 240.296875 Z M 105.945313 302.320313 "/>
<path style=" stroke:none;fill-rule:nonzero;fill:rgb(100%,0%,0%);fill-opacity:1;" d="M 110.925781 353.195313 L 114.910156 353.195313 L 114.910156 283.691406 L 110.925781 283.691406 Z M 110.925781 353.195313 "/>
<path style=" stroke:none;fill-rule:nonzero;fill:rgb(0%,50.196081%,0%);fill-opacity:1;" d="M 115.90625 350.605469 L 119.890625 350.605469 L 119.890625 315.640625 L 115.90625 315.640625 Z M 115.90625 350.605469 "/>
<path style=" stroke:none;fill-rule:nonzero;fill:rgb(0%,50.196081%,0%);fill-opacity:1;" d="M 120.886719 299.410156 L 124.871094 299.410156 L 124.871094 292.925781 L 120.886719 292.925781 Z M 120.886719 299.410156 "/>
<path style=" stroke:none;fill-rule:nonzero;fill:rgb(100%,0%,0%);fill-opacity:1;" d="M 125.867188 329.289063 L 129.851563 329.289063 L 129.851563 304.921875 L 125.867188 304.921875 Z M 125.867188 329.289063 "/>
<path style=" stroke:none;fill-rule:nonzero;fill:rgb(0%,50.196081%,0%);fill-opacity:1;" d="M 130.847656 324.316406 L 134.832031 324.316406 L 134.832031 273.828125 L 130.847656 273.828125 Z M 130.847656 324.316406 "/>
<path style=" stroke:none;fill-rule:nonzero;fill:rgb(100%,0%,0%);fill-opacity:1;" d="M 135.828125 341.710938 L 139.8125 341.710938 L 139.8125 288.5625 L 135.828125 288.5625 Z M 135.828125 341.710938 "/>
<path style=" stroke:none;fill-rule:nonzero;fill:rgb(100%,0%,0%);fill-opacity:1;" d="M 140.808594 369.519531 L 144.792969 369.519531 L 144.792969 339.085938 L 140.808594 339.085938 Z M 140.808594 369.519531 "/>
<path style=" stroke:none;fill-rule:nonzero;fill:rgb(0%,50.196081%,0%);fill-opacity:1;" d="M 145.789063 364.371094 L 149.773438 364.371094 L 149.773438 348.496094 L 145.789063 348.496094 Z M 145.789063 364.371094 "/>
<path style=" stroke:none;fill-rule:nonzero;fill:rgb(100%,0%,0%);fill-opacity:1;" d="M 150.769531 361.847656 L 154.753906 361.847656 L 154.753906 339.078125 L 150.769531 339.078125 Z M 150.769531 361.847656 "/>
<path style=" stroke:none;fill-rule:nonzero;fill:rgb(0%,50.196081%,0%);fill-opacity:1;" d="M 155.75 385.613281 L 159.734375 385.613281 L 159.734375 357.859375 L 155.75 357.859375 Z M 155.75 385.613281 "/>
<path style=" stroke:none;fill-rule:nonzero;fill:rgb(0%,50.196081%,0%);fill-opacity:1;" d="M 160.730469 357.664063 L 164.714844 357.664063 L 164.714844 349.621094 L 160.730469 349.621094 Z M 160.730469 357.664063 "/>
<path style=" stroke:none;fill-rule:nonzero;fill:rgb(100%,0%,0%);fill-opacity:1;" d="M 165.710938 353.09375 L 169.695313 353.09375 L 169.695313 352.253906 L 165.710938 352.253906 Z M 165.710938 353.09375 "/>
<path style=" stroke:none;fill-rule:nonzero;fill:rgb(0%,50.196081%,0%);fill-opacity:1;" d="M 170.691406 363.226563 L 174.675781 363.226563 L 174.675781 321.207031 L 170.691406 321.207031 Z M 170.691406 363.226563 "/>
<path style=" stroke:none;fill-rule:nonzero;fill:rgb(100%,0%,0%);fill-opacity:1;" d="M 175.671875 334.328125 L 179.65625 334.328125 L 179.65625 329.144531 L 175.671875 329.144531 Z M 175.671875 334.328125 "/>
<path style=" stroke:none;fill-rule:nonzero;fill:rgb(0%,50.196081%,0%);fill-opacity:1;" d="M 180.652344 320.570313 L 184.636719 320.570313 L 184.636719 287.695313 L 180.652344 287.695313 Z M 180.652344 320.570313 "/>
<path style=" stroke:none;fill-rule:nonzero;fill:rgb(100%,0%,0%);fill-opacity:1;" d="M 185.632813 286.277344 L 189.617188 286.277344 L 189.617188 278.277344 L 185.632813 278.277344 Z M 185.632813 286.277344 "/>
<path style=" stroke:none;fill-rule:nonzero;fill:rgb(0%,50.196081%,0%);fill-opacity:1;" d="M 190.613281 289.914063 L 194.597656 289.914063 L 194.597656 254.046875 L 190.613281 254.046875 Z M 190.613281 289.914063 "/>
<path style=" stroke:none;fill-rule:nonzero;fill:rgb(0%,50.196081%,0%);fill-opacity:1;" d="M 195.59375 243.070313 L 199.578125 243.070313 L 199.578125 219.132813 L 195.59375 219.132813 Z M 195.59375 243.070313 "/>
<path style=" stroke:none;fill-rule:nonzero;fill:rgb(100%,0%,0%);fill-opacity:1;" d="M 200.574219 248.148438 L 204.558594 248.148438 L 204.558594 214.933594 L 200.574219 214.933594 Z M 200.574219 248.148438 "/>
<path style=" stroke:none;fill-rule:nonzero;fill:rgb(0%,50.196081%,0%);fill-opacity:1;" d="M 205.554688 245.574219 L 209.539063 245.574219 L 209.539063 214.609375 L 205.554688 214.609375 Z M 205.554688 245.574219 "/>
<path style=" stroke:none;fill-rule:nonzero;fill:rgb(100%,0%,0%);fill-opacity:1;" d="M 210.535156 220.648438 L 214.519531 220.648438 L 214.519531 217.015625 L 210.535156 217.015625 Z M 210.535156 220.648438 "/>
<path style=" stroke:none;fill-rule:nonzero;fill:rgb(100%,0%,0%);fill-opacity:1;" d="M 215.515625 251.15625 L 219.5 251.15625 L 219.5 229.726563 L 215.515625 229.726563 Z M 215.515625 251.15625 "/>
<path style=" stroke:none;fill-rule:nonzero;fill:rgb(100%,0%,0%);fill-opacity:1;" d="M 220.496094 271.9375 L 224.480469 271.9375 L 224.480469 251.296875 L 220.496094 251.296875 Z M 220.496094 271.9375 "/>
<path style=" stroke:none;fill-rule:nonzero;fill:rgb(0%,50.196081%,0%);fill-opacity:1;" d="M 225.476563 282.507813 L 229.460938 282.507813 L 229.460938 274.429688 L 225.476563 274.429688 Z M 225.476563 282.507813 "/>
<path style=" stroke:none;fill-rule:nonzero;fill:rgb(100%,0%,0%);fill-opacity:1;" d="M 230.457031 303.4375 L 234.441406 303.4375 L 234.441406 277.722656 L 230.457031 277.722656 Z M 230.457031 303.4375 "/>
<path style=" stroke:none;fill-rule:nonzero;fill:rgb(0%,50.196081%,0%);fill-opacity:1;" d="M 235.4375 298.644531 L 239.421875 298.644531 L 239.421875 291.359375 L 235.4375 291.359375 Z M 235.4375 298.644531 "/>
<path style=" stroke:none;fill-rule:nonzero;fill:rgb(0%,50.196081%,0%);fill-opacity:1;" d="M 240.417969 284.015625 L 244.402344 284.015625 L 244.402344 234.574219 L 240.417969 234.574219 Z M 240.417969 284.015625 "/>
<path style=" stroke:none;fill-rule:nonzero;fill:rgb(0%,50.196081%,0%);fill-opacity:1;" d="M 245.398438 251.792969 L 249.382813 251.792969 L 249.382813 237.457031 L 245.398438 237.457031 Z M 245.398438 251.792969 "/>
<path style=" stroke:none;fill-rule:nonzero;fill:rgb(100%,0%,0%);fill-opacity:1;" d="M 250.378906 253.945313 L 254.363281 253.945313 L 254.363281 244.394531 L 250.378906 244.394531 Z M 250.378906 253.945313 "/>
<path style=" stroke:none;fill-rule:nonzero;fill:rgb(0%,50.196081%,0%);fill-opacity:1;" d="M 255.359375 246.363281 L 259.34375 246.363281 L 259.34375 216.480469 L 255.359375 216.480469 Z M 255.359375 246.363281 "/>
<path style=" stroke:none;fill-rule:nonzero;fill:rgb(0%,50.196081%,0%);fill-opacity:1;" d="M 260.339844 223.101563 L 264.324219 223.101563 L 264.324219 214.175781 L 260.339844 214.175781 Z M 260.339844 223.101563 "/>
<path style=" stroke:none;fill-rule:nonzero;fill:rgb(0%,50.196081%,0%);fill-opacity:1;" d="M 265.320313 204.289063 L 269.304688 204.289063 L 269.304688 193.058594 L 265.320313 193.058594 Z M 265.320313 204.289063 "/>
<path style=" stroke:none;fill-rule:nonzero;fill:rgb(0%,50.196081%,0%);fill-opacity:1;" d="M 270.300781 183.96875 L 274.285156 183.96875 L 274.285156 146.277344 L 270.300781 146.277344 Z M 270.300781 183.96875 "/>
<path style=" stroke:none;fill-rule:nonzero;fill:rgb(0%,50.196081%,0%);fill-opacity:1;" d="M 275.28125 146.613281 L 279.265625 146.613281 L 279.265625 137.253906 L 275.28125 137.253906 Z M 275.28125 146.613281 "/>
<path style=" stroke:none;fill-rule:nonzero;fill:rgb(0%,50.196081%,0%);fill-opacity:1;" d="M 280.261719 143.238281 L 284.246094 143.238281 L 284.246094 134.332031 L 280.261719 134.332031 Z M 280.261719 143.238281 "/>
<path style=" stroke:none;fill-rule:nonzero;fill:rgb(0%,50.196081%,0%);fill-opacity:1;" d="M 285.242188 131.667969 L 289.226563 131.667969 L 289.226563 129.070313 L 285.242188 129.070313 Z M 285.242188 131.667969 "/>
<path style=" stroke:none;fill-rule:nonzero;fill:rgb(100%,0%,0%);fill-opacity:1;" d="M 290.222656 133.167969 L 294.207031 133.167969 L 294.207031 126.378906 L 290.222656 126.378906 Z M 290.222656 133.167969 "/>
<path style=" stroke:none;fill-rule:nonzero;fill:rgb(0%,50.196081%,0%);fill-opacity:1;" d="M 295.203125 140.230469 L 299.1875 140.230469 L 299.1875 136.253906 L 295.203125 136.253906 Z M 295.203125 140.230469 "/>
<path style=" stroke:none;fill-rule:nonzero;fill:rgb(100%,0%,0%);fill-opacity:1;" d="M 300.183594 171.601563 L 304.167969 171.601563 L 304.167969 137.53125 L 300.183594 137.53125 Z M 300.183594 171.601563 "/>
<path style=" stroke:none;fill-rule:nonzero;fill:rgb(100%,0%,0%);fill-opacity:1;" d="M 305.164063 185.617188 L 309.148438 185.617188 L 309.148438 172.113281 L 305.164063 172.113281 Z M 305.164063 185.617188 "/>
<path style=" stroke:none;fill-rule:nonzero;fill:rgb(100%,0%,0%);fill-opacity:1;" d="M 310.144531 250.414063 L 314.128906 250.414063 L 314.128906 193.949219 L 310.144531 193.949219 Z M 310.144531 250.414063 "/>
<path style=" stroke:none;fill-rule:nonzero;fill:rgb(0%,50.196081%,0%);fill-opacity:1;" d="M 315.121094 237.050781 L 319.105469 237.050781 L 319.105469 223.515625 L 315.121094 223.515625 Z M 315.121094 237.050781 "/>
<path style=" stroke:none;fill-rule:nonzero;fill:rgb(100%,0%,0%);fill-opacity:1;" d="M 320.101563 237.757813 L 324.085938 237.757813 L 324.085938 233.050781 L 320.101563 233.050781 Z M 320.101563 237.757813 "/>
<path style=" stroke:none;fill-rule:nonzero;fill:rgb(0%,50.196081%,0%);fill-opacity:1;" d="M 325.082031 237.289063 L 329.066406 237.289063 L 329.066406 202.304688 L 325.082031 202.304688 Z M 325.082031 237.289063 "/>
<path style=" stroke:none;fill-rule:nonzero;fill:rgb(100%,0%,0%);fill-opacity:1;" d="M 330.0625 274.371094 L 334.046875 274.371094 L 334.046875 221.445313 L 330.0625 221.445313 Z M 330.0625 274.371094 "/>
<path style=" stroke:none;fill-rule:nonzero;fill:rgb(100%,0%,0%);fill-opacity:1;" d="M 335.042969 301.324219 L 339.027344 301.324219 L 339.027344 274.867188 L 335.042969 274.867188 Z M 335.042969 301.324219 "/>
<path style=" stroke:none;fill-rule:nonzero;fill:rgb(100%,0%,0%);fill-opacity:1;" d="M 340.023438 321.675781 L 344.007813 321.675781 L 344.007813 314.820313 L 340.023438 314.820313 Z M 340.023438 321.675781 "/>
<path style=" stroke:none;fill-rule:nonzero;fill:rgb(100%,0%,0%);fill-opacity:1;" d="M 345.003906 340.945313 L 348.988281 340.945313 L 348.988281 324.8125 L 345.003906 324.8125 Z M 345.003906 340.945313 "/>
<path style=" stroke:none;fill-rule:nonzero;fill:rgb(100%,0%,0%);fill-opacity:1;" d="M 349.984375 347.757813 L 353.96875 347.757813 L 353.96875 332.441406 L 349.984375 332.441406 Z M 349.984375 347.757813 "/>
<path style=" stroke:none;fill-rule:nonzero;fill:rgb(100%,0%,0%);fill-opacity:1;" d="M 354.964844 358.582031 L 358.949219 358.582031 L 358.949219 343.75 L 354.964844 343.75 Z M 354.964844 358.582031 "/>
<path style=" stroke:none;fill-rule:nonzero;fill:rgb(0%,50.196081%,0%);fill-opacity:1;" d="M 359.945313 353.554688 L 363.929688 353.554688 L 363.929688 321.183594 L 359.945313 321.183594 Z M 359.945313 353.554688 "/>
<path style=" stroke:none;fill-rule:nonzero;fill:rgb(100%,0%,0%);fill-opacity:1;" d="M 364.925781 337.214844 L 368.910156 337.214844 L 368.910156 331.375 L 364.925781 331.375 Z M 364.925781 337.214844 "/>
<path style=" stroke:none;fill-rule:nonzero;fill:rgb(100%,0%,0%);fill-opacity:1;" d="M 369.90625 334.992188 L 373.890625 334.992188 L 373.890625 333.777344 L 369.90625 333.777344 Z M 369.90625 334.992188 "/>
<path style=" stroke:none;fill-rule:nonzero;fill:rgb(0%,50.196081%,0%);fill-opacity:1;" d="M 374.886719 343.921875 L 378.871094 343.921875 L 378.871094 334.015625 L 374.886719 334.015625 Z M 374.886719 343.921875 "/>
<path style=" stroke:none;fill-rule:nonzero;fill:rgb(0%,50.196081%,0%);fill-opacity:1;" d="M 379.867188 319.496094 L 383.851563 319.496094 L 383.851563 249.1875 L 379.867188 249.1875 Z M 379.867188 319.496094 "/>
<path style=" stroke:none;fill-rule:nonzero;fill:rgb(0%,50.196081%,0%);fill-opacity:1;" d="M 384.847656 241.363281 L 388.832031 241.363281 L 388.832031 241.082031 L 384.847656 241.082031 Z M 384.847656 241.363281 "/>
<path style=" stroke:none;fill-rule:nonzero;fill:rgb(100%,0%,0%);fill-opacity:1;" d="M 389.828125 285.84375 L 393.8125 285.84375 L 393.8125 245.742188 L 389.828125 245.742188 Z M 389.828125 285.84375 "/>
<path style=" stroke:none;fill-rule:nonzero;fill:rgb(0%,50.196081%,0%);fill-opacity:1;" d="M 394.808594 302.003906 L 398.792969 302.003906 L 398.792969 270.664063 L 394.808594 270.664063 Z M 394.808594 302.003906 "/>
<path style=" stroke:none;fill-rule:nonzero;fill:rgb(100%,0%,0%);fill-opacity:1;" d="M 399.789063 326.398438 L 403.773438 326.398438 L 403.773438 289.753906 L 399.789063 289.753906 Z M 399.789063 326.398438 "/>
<path style=" stroke:none;fill-rule:nonzero;fill:rgb(100%,0%,0%);fill-opacity:1;" d="M 404.769531 308.019531 L 408.753906 308.019531 L 408.753906 299.953125 L 404.769531 299.953125 Z M 404.769531 308.019531 "/>
<path style=" stroke:none;fill-rule:nonzero;fill:rgb(0%,50.196081%,0%);fill-opacity:1;" d="M 409.75 312.558594 L 413.734375 312.558594 L 413.734375 309.179688 L 409.75 309.179688 Z M 409.75 312.558594 "/>
<path style=" stroke:none;fill-rule:nonzero;fill:rgb(0%,50.196081%,0%);fill-opacity:1;" d="M 414.730469 311.515625 L 418.714844 311.515625 L 418.714844 299.421875 L 414.730469 299.421875 Z M 414.730469 311.515625 "/>
<path style=" stroke:none;fill-rule:nonzero;fill:rgb(0%,50.196081%,0%);fill-opacity:1;" d="M 419.710938 291.296875 L 423.695313 291.296875 L 423.695313 274.917969 L 419.710938 274.917969 Z M 419.710938 291.296875 "/>
<path style=" stroke:none;fill-rule:nonzero;fill:rgb(100%,0%,0%);fill-opacity:1;" d="M 424.691406 298.113281 L 428.675781 298.113281 L 428.675781 273.476563 L 424.691406 273.476563 Z M 424.691406 298.113281 "/>
<path style=" stroke:none;fill-rule:nonzero;fill:rgb(0%,50.196081%,0%);fill-opacity:1;" d="M 429.671875 301.535156 L 433.65625 301.535156 L 433.65625 278.070313 L 429.671875 278.070313 Z M 429.671875 301.535156 "/>
<path style=" stroke:none;fill-rule:nonzero;fill:rgb(0%,50.196081%,0%);fill-opacity:1;" d="M 434.652344 273.707031 L 438.636719 273.707031 L 438.636719 259.355469 L 434.652344 259.355469 Z M 434.652344 273.707031 "/>
<path style=" stroke:none;fill-rule:nonzero;fill:rgb(100%,0%,0%);fill-opacity:1;" d="M 439.632813 255.230469 L 443.617188 255.230469 L 443.617188 254.269531 L 439.632813 254.269531 Z M 439.632813 255.230469 "/>
<path style=" stroke:none;fill-rule:nonzero;fill:rgb(100%,0%,0%);fill-opacity:1;" d="M 444.613281 256.289063 L 448.597656 256.289063 L 448.597656 251.316406 L 444.613281 251.316406 Z M 444.613281 256.289063 "/>
<path style=" stroke:none;fill-rule:nonzero;fill:rgb(0%,50.196081%,0%);fill-opacity:1;" d="M 449.59375 268.144531 L 453.578125 268.144531 L 453.578125 193.820313 L 449.59375 193.820313 Z M 449.59375 268.144531 "/>
<path style=" stroke:none;fill-rule:nonzero;fill:rgb(100%,0%,0%);fill-opacity:1;" d="M 454.574219 211.332031 L 458.558594 211.332031 L 458.558594 188.878906 L 454.574219 188.878906 Z M 454.574219 211.332031 "/>
<path style=" stroke:none;fill-rule:nonzero;fill:rgb(100%,0%,0%);fill-opacity:1;" d="M 459.554688 244.734375 L 463.539063 244.734375 L 463.539063 206.011719 L 459.554688 206.011719 Z M 459.554688 244.734375 "/>
<path style=" stroke:none;fill-rule:nonzero;fill:rgb(0%,50.196081%,0%);fill-opacity:1;" d="M 464.535156 243.996094 L 468.519531 243.996094 L 468.519531 214.238281 L 464.535156 214.238281 Z M 464.535156 243.996094 "/>
<path style=" stroke:none;fill-rule:nonzero;fill:rgb(0%,50.196081%,0%);fill-opacity:1;" d="M 469.515625 233.128906 L 473.5 233.128906 L 473.5 218.445313 L 469.515625 218.445313 Z M 469.515625 233.128906 "/>
<path style=" stroke:none;fill-rule:nonzero;fill:rgb(0%,50.196081%,0%);fill-opacity:1;" d="M 474.496094 212.964844 L 478.480469 212.964844 L 478.480469 192.65625 L 474.496094 192.65625 Z M 474.496094 212.964844 "/>
<path style=" stroke:none;fill-rule:nonzero;fill:rgb(0%,50.196081%,0%);fill-opacity:1;" d="M 479.476563 193.015625 L 483.460938 193.015625 L 483.460938 190.007813 L 479.476563 190.007813 Z M 479.476563 193.015625 "/>
<path style=" stroke:none;fill-rule:nonzero;fill:rgb(100%,0%,0%);fill-opacity:1;" d="M 484.457031 199.164063 L 488.441406 199.164063 L 488.441406 197.773438 L 484.457031 197.773438 Z M 484.457031 199.164063 "/>
<path style=" stroke:none;fill-rule:nonzero;fill:rgb(0%,50.196081%,0%);fill-opacity:1;" d="M 489.4375 210.507813 L 493.421875 210.507813 L 493.421875 192.550781 L 489.4375 192.550781 Z M 489.4375 210.507813 "/>
<path style=" stroke:none;fill-rule:nonzero;fill:rgb(0%,50.196081%,0%);fill-opacity:1;" d="M 494.417969 180.152344 L 498.402344 180.152344 L 498.402344 157.070313 L 494.417969 157.070313 Z M 494.417969 180.152344 "/>
<path style=" stroke:none;fill-rule:nonzero;fill:rgb(0%,50.196081%,0%);fill-opacity:1;" d="M 499.398438 170.628906 L 503.382813 170.628906 L 503.382813 169.894531 L 499.398438 169.894531 Z M 499.398438 170.628906 "/>
<path style=" stroke:none;fill-rule:nonzero;fill:rgb(0%,50.196081%,0%);fill-opacity:1;" d="M 504.378906 160.15625 L 508.363281 160.15625 L 508.363281 140.667969 L 504.378906 140.667969 Z M 504.378906 160.15625 "/>
<path style=" stroke:none;fill-rule:nonzero;fill:rgb(0%,50.196081%,0%);fill-opacity:1;" d="M 509.359375 159.480469 L 513.34375 159.480469 L 513.34375 142.746094 L 509.359375 142.746094 Z M 509.359375 159.480469 "/>
<path style=" stroke:none;fill-rule:nonzero;fill:rgb(100%,0%,0%);fill-opacity:1;" d="M 514.339844 194.488281 L 518.324219 194.488281 L 518.324219 141.472656 L 514.339844 141.472656 Z M 514.339844 194.488281 "/>
<path style=" stroke:none;fill-rule:nonzero;fill:rgb(0%,50.196081%,0%);fill-opacity:1;" d="M 519.320313 190.84375 L 523.304688 190.84375 L 523.304688 164.007813 L 519.320313 164.007813 Z M 519.320313 190.84375 "/>
<path style=" stroke:none;fill-rule:nonzero;fill:rgb(100%,0%,0%);fill-opacity:1;" d="M 524.300781 184.878906 L 528.285156 184.878906 L 528.285156 161.960938 L 524.300781 161.960938 Z M 524.300781 184.878906 "/>
<path style=" stroke:none;fill-rule:nonzero;fill:rgb(100%,0%,0%);fill-opacity:1;" d="M 529.28125 171.820313 L 533.265625 171.820313 L 533.265625 166.679688 L 529.28125 166.679688 Z M 529.28125 171.820313 "/>
<path style=" stroke:none;fill-rule:nonzero;fill:rgb(0%,50.196081%,0%);fill-opacity:1;" d="M 534.261719 179.59375 L 538.246094 179.59375 L 538.246094 179.371094 L 534.261719 179.371094 Z M 534.261719 179.59375 "/>
<path style=" stroke:none;fill-rule:nonzero;fill:rgb(0%,50.196081%,0%);fill-opacity:1;" d="M 539.242188 167.453125 L 543.226563 167.453125 L 543.226563 141.574219 L 539.242188 141.574219 Z M 539.242188 167.453125 "/>
<path style=" stroke:none;fill-rule:nonzero;fill:rgb(0%,50.196081%,0%);fill-opacity:1;" d="M 544.222656 138.847656 L 548.207031 138.847656 L 548.207031 122.371094 L 544.222656 122.371094 Z M 544.222656 138.847656 "/>
<path style=" stroke:none;fill-rule:nonzero;fill:rgb(100%,0%,0%);fill-opacity:1;" d="M 549.203125 116.699219 L 553.1875 116.699219 L 553.1875 116.648438 L 549.203125 116.648438 Z M 549.203125 116.699219 "/>
<path style=" stroke:none;fill-rule:nonzero;fill:rgb(0%,50.196081%,0%);fill-opacity:1;" d="M 554.183594 117.246094 L 558.167969 117.246094 L 558.167969 103.703125 L 554.183594 103.703125 Z M 554.183594 117.246094 "/>
<path style=" stroke:none;fill-rule:nonzero;fill:rgb(0%,50.196081%,0%);fill-opacity:1;" d="M 559.164063 100.175781 L 563.148438 100.175781 L 563.148438 32.175781 L 559.164063 32.175781 Z M 559.164063 100.175781 "/>
<path style="fill:none;stroke-width:1;stroke-linecap:butt;stroke-linejoin:miter;stroke:rgb(0%,0%,0%);stroke-opacity:1;stroke-miterlimit:10;" d="M 84.151042 557.5 L 84.151042 563.5 " transform="matrix(0.75,0,0,0.75,0,0)"/>
<path style="fill:none;stroke-width:1;stroke-linecap:butt;stroke-linejoin:miter;stroke:rgb(0%,0%,0%);stroke-opacity:1;stroke-miterlimit:10;" d="M 416.182292 557.5 L 416.182292 563.5 " transform="matrix(0.75,0,0,0.75,0,0)"/>
<path style="fill:none;stroke-width:1;stroke-linecap:butt;stroke-linejoin:miter;stroke:rgb(0%,0%,0%);stroke-opacity:1;stroke-miterlimit:10;" d="M 748.208333 557.5 L 748.208333 563.5 " transform="matrix(0.75,0,0,0.75,0,0)"/>
<path style="fill:none;stroke-width:1;stroke-linecap:butt;stroke-linejoin:miter;stroke:rgb(0%,0%,0%);stroke-opacity:1;stroke-miterlimit:10;" d="M 54.5 469.567708 L 48.5 469.567708 " transform="matrix(0.75,0,0,0.75,0,0)"/>
<path style="fill:none;stroke-width:1;stroke-linecap:butt;stroke-linejoin:miter;stroke:rgb(0%,0%,0%);stroke-opacity:1;stroke-miterlimit:10;" d="M 54.5 369.838542 L 48.5 369.838542 " transform="matrix(0.75,0,0,0.75,0,0)"/>
<path style="fill:none;stroke-width:1;stroke-linecap:butt;stroke-linejoin:miter;stroke:rgb(0%,0%,0%);stroke-opacity:1;stroke-miterlimit:10;" d="M 54.5 270.109375 L 48.5 270.109375 " transform="matrix(0.75,0,0,0.75,0,0)"/>
<path style="fill:none;stroke-width:1;stroke-linecap:butt;stroke-linejoin:miter;stroke:rgb(0%,0%,0%);stroke-opacity:1;stroke-miterlimit:10;" d="M 54.5 170.375 L 48.5 170.375 " transform="matrix(0.75,0,0,0.75,0,0)"/>
<path style="fill:none;stroke-width:1;stroke-linecap:butt;stroke-linejoin:miter;stroke:rgb(0%,0%,0%);stroke-opacity:1;stroke-miterlimit:10;" d="M 54.5 70.645833 L 48.5 70.645833 " transform="matrix(0.75,0,0,0.75,0,0)"/>
<path style="fill:none;stroke-width:1;stroke-linecap:butt;stroke-linejoin:miter;stroke:rgb(0%,0%,0%);stroke-opacity:1;stroke-miterlimit:10;" d="M 54.5 557 L 784.5 557 " transform="matrix(0.75,0,0,0.75,0,0)"/>
<path style="fill:none;stroke-width:1;stroke-linecap:butt;stroke-linejoin:miter;stroke:rgb(0%,0%,0%);stroke-opacity:1;stroke-miterlimit:10;" d="M 55 557.5 L 55 15.5 " transform="matrix(0.75,0,0,0.75,0,0)"/>
<path style="fill:none;stroke-width:1;stroke-linecap:butt;stroke-linejoin:miter;stroke:rgb(0%,0%,0%);stroke-opacity:1;stroke-miterlimit:10;" d="M 54.5 16 L 784.5 16 " transform="matrix(0.75,0,0,0.75,0,0)"/>
<path style="fill:none;stroke-width:1;stroke-linecap:butt;stroke-linejoin:miter;stroke:rgb(0%,0%,0%);stroke-opacity:1;stroke-miterlimit:10;" d="M 784 557.5 L 784 15.5 " transform="matrix(0.75,0,0,0.75,0,0)"/>
</g>
</svg>
