# Blender v2.92.0 OBJ File: 'cone.blend'
# www.blender.org
mtllib cone.mtl
o Cylinder
v 0.000000 0.500000 0.000000
v 0.000000 0.000000 1.000000
v 0.097545 0.490393 0.000000
v 0.000000 0.000000 1.000000
v 0.191342 0.461940 0.000000
v 0.000000 0.000000 1.000000
v 0.277785 0.415735 0.000000
v 0.000000 0.000000 1.000000
v 0.353553 0.353553 0.000000
v 0.000000 0.000000 1.000000
v 0.415735 0.277785 0.000000
v 0.000000 0.000000 1.000000
v 0.461940 0.191342 0.000000
v 0.000000 0.000000 1.000000
v 0.490393 0.097545 0.000000
v 0.000000 0.000000 1.000000
v 0.500000 0.000000 0.000000
v 0.000000 0.000000 1.000000
v 0.490393 -0.097545 -0.000000
v 0.000000 0.000000 1.000000
v 0.461940 -0.191342 -0.000000
v 0.000000 0.000000 1.000000
v 0.415735 -0.277785 -0.000000
v 0.000000 0.000000 1.000000
v 0.353553 -0.353553 -0.000000
v 0.000000 0.000000 1.000000
v 0.277785 -0.415735 -0.000000
v 0.000000 0.000000 1.000000
v 0.191342 -0.461940 -0.000000
v 0.000000 0.000000 1.000000
v 0.097545 -0.490393 -0.000000
v 0.000000 0.000000 1.000000
v -0.000000 -0.500000 -0.000000
v 0.000000 0.000000 1.000000
v -0.097545 -0.490393 -0.000000
v 0.000000 0.000000 1.000000
v -0.191342 -0.461940 -0.000000
v 0.000000 0.000000 1.000000
v -0.277785 -0.415735 -0.000000
v 0.000000 0.000000 1.000000
v -0.353554 -0.353553 -0.000000
v 0.000000 0.000000 1.000000
v -0.415735 -0.277785 -0.000000
v 0.000000 0.000000 1.000000
v -0.461940 -0.191341 -0.000000
v 0.000000 0.000000 1.000000
v -0.490393 -0.097545 -0.000000
v 0.000000 0.000000 1.000000
v -0.500000 0.000001 0.000000
v 0.000000 0.000000 1.000000
v -0.490393 0.097546 0.000000
v 0.000000 0.000000 1.000000
v -0.461940 0.191342 0.000000
v 0.000000 0.000000 1.000000
v -0.415734 0.277786 0.000000
v 0.000000 0.000000 1.000000
v -0.353553 0.353554 0.000000
v 0.000000 0.000000 1.000000
v -0.277785 0.415735 0.000000
v 0.000000 0.000000 1.000000
v -0.191341 0.461940 0.000000
v 0.000000 0.000000 1.000000
v -0.097544 0.490393 0.000000
v 0.000000 0.000000 1.000000
v 0.000000 0.500000 0.000000
v 0.097545 0.490393 0.000000
v 0.191342 0.461940 0.000000
v 0.277785 0.415735 0.000000
v 0.353553 0.353553 0.000000
v 0.415735 0.277785 0.000000
v 0.461940 0.191342 0.000000
v 0.490393 0.097545 0.000000
v 0.500000 0.000000 0.000000
v 0.490393 -0.097545 -0.000000
v 0.461940 -0.191342 -0.000000
v 0.415735 -0.277785 -0.000000
v 0.353553 -0.353553 -0.000000
v 0.277785 -0.415735 -0.000000
v 0.191342 -0.461940 -0.000000
v 0.097545 -0.490393 -0.000000
v -0.000000 -0.500000 -0.000000
v -0.097545 -0.490393 -0.000000
v -0.191342 -0.461940 -0.000000
v -0.277785 -0.415735 -0.000000
v -0.353554 -0.353553 -0.000000
v -0.415735 -0.277785 -0.000000
v -0.461940 -0.191341 -0.000000
v -0.490393 -0.097545 -0.000000
v -0.500000 0.000001 0.000000
v -0.490393 0.097546 0.000000
v -0.461940 0.191342 0.000000
v -0.415734 0.277786 0.000000
v -0.353553 0.353554 0.000000
v -0.277785 0.415735 0.000000
v -0.191341 0.461940 0.000000
v -0.097544 0.490393 0.000000
vt 1.000000 0.750000
vt 1.000000 1.000000
vt 0.968750 1.000000
vt 0.968750 0.750000
vt 0.937500 1.000000
vt 0.937500 0.750000
vt 0.906250 1.000000
vt 0.906250 0.750000
vt 0.875000 1.000000
vt 0.875000 0.750000
vt 0.843750 1.000000
vt 0.843750 0.750000
vt 0.812500 1.000000
vt 0.812500 0.750000
vt 0.781250 1.000000
vt 0.781250 0.750000
vt 0.750000 1.000000
vt 0.750000 0.750000
vt 0.718750 1.000000
vt 0.718750 0.750000
vt 0.687500 1.000000
vt 0.687500 0.750000
vt 0.656250 1.000000
vt 0.656250 0.750000
vt 0.625000 1.000000
vt 0.625000 0.750000
vt 0.593750 1.000000
vt 0.593750 0.750000
vt 0.562500 1.000000
vt 0.562500 0.750000
vt 0.531250 1.000000
vt 0.531250 0.750000
vt 0.500000 1.000000
vt 0.500000 0.750000
vt 0.468750 1.000000
vt 0.468750 0.750000
vt 0.437500 1.000000
vt 0.437500 0.750000
vt 0.406250 1.000000
vt 0.406250 0.750000
vt 0.375000 1.000000
vt 0.375000 0.750000
vt 0.343750 1.000000
vt 0.343750 0.750000
vt 0.312500 1.000000
vt 0.312500 0.750000
vt 0.281250 1.000000
vt 0.281250 0.750000
vt 0.250000 1.000000
vt 0.250000 0.750000
vt 0.218750 1.000000
vt 0.218750 0.750000
vt 0.187500 1.000000
vt 0.187500 0.750000
vt 0.156250 1.000000
vt 0.156250 0.750000
vt 0.125000 1.000000
vt 0.125000 0.750000
vt 0.093750 1.000000
vt 0.093750 0.750000
vt 0.062500 1.000000
vt 0.062500 0.750000
vt 0.031250 1.000000
vt 0.031250 0.750000
vt 0.000000 1.000000
vt 0.000000 0.750000
vt 0.750000 0.490000
vt 0.796822 0.485388
vt 0.841844 0.471731
vt 0.883337 0.449553
vt 0.919706 0.419706
vt 0.949553 0.383337
vt 0.971731 0.341844
vt 0.985388 0.296822
vt 0.990000 0.250000
vt 0.985388 0.203178
vt 0.971731 0.158156
vt 0.949553 0.116663
vt 0.919706 0.080294
vt 0.883337 0.050447
vt 0.841844 0.028269
vt 0.796822 0.014612
vt 0.750000 0.010000
vt 0.703178 0.014612
vt 0.658156 0.028269
vt 0.616663 0.050447
vt 0.580294 0.080294
vt 0.550447 0.116663
vt 0.528269 0.158156
vt 0.514611 0.203179
vt 0.510000 0.250000
vt 0.514612 0.296822
vt 0.528269 0.341844
vt 0.550447 0.383337
vt 0.580295 0.419706
vt 0.616663 0.449553
vt 0.658156 0.471731
vt 0.703179 0.485389
vn 0.0000 0.8944 0.4472
vn 0.1722 0.8777 0.4472
vn 0.1745 0.8772 0.4472
vn 0.3423 0.8263 0.4472
vn 0.4969 0.7437 0.4472
vn 0.6324 0.6324 0.4472
vn 0.7437 0.4969 0.4472
vn 0.8244 0.3470 0.4472
vn 0.8263 0.3423 0.4472
vn 0.8772 0.1745 0.4472
vn 0.8944 0.0000 0.4472
vn 0.8772 -0.1745 0.4472
vn 0.8281 -0.3381 0.4472
vn 0.8263 -0.3423 0.4472
vn 0.7437 -0.4969 0.4472
vn 0.6324 -0.6324 0.4472
vn 0.4969 -0.7437 0.4472
vn 0.3423 -0.8263 0.4472
vn 0.1635 -0.8794 0.4472
vn 0.1745 -0.8772 0.4472
vn 0.0000 -0.8944 0.4472
vn -0.1636 -0.8793 0.4472
vn -0.1745 -0.8772 0.4472
vn -0.3423 -0.8263 0.4472
vn -0.4969 -0.7437 0.4472
vn -0.6324 -0.6324 0.4472
vn -0.7437 -0.4969 0.4472
vn -0.8281 -0.3381 0.4472
vn -0.8263 -0.3423 0.4472
vn -0.8772 -0.1745 0.4472
vn -0.8944 0.0000 0.4472
vn -0.8772 0.1745 0.4472
vn -0.8244 0.3470 0.4472
vn -0.8263 0.3423 0.4472
vn -0.7437 0.4969 0.4472
vn -0.6324 0.6324 0.4472
vn -0.4969 0.7437 0.4472
vn -0.3423 0.8263 0.4472
vn -0.1769 0.8767 0.4472
vn -0.1745 0.8772 0.4472
vn 0.0000 0.0000 -1.0000
usemtl None
s 1
f 65/1/1 2/2/1 4/3/2 66/4/3
f 66/4/3 4/3/2 6/5/4 67/6/4
f 67/6/4 6/5/4 8/7/5 68/8/5
f 68/8/5 8/7/5 10/9/6 69/10/6
f 69/10/6 10/9/6 12/11/7 70/12/7
f 70/12/7 12/11/7 14/13/8 71/14/9
f 71/14/9 14/13/8 16/15/10 72/16/10
f 72/16/10 16/15/10 18/17/11 73/18/11
f 73/18/11 18/17/11 20/19/12 74/20/12
f 74/20/12 20/19/12 22/21/13 75/22/14
f 75/22/14 22/21/13 24/23/15 76/24/15
f 76/24/15 24/23/15 26/25/16 77/26/16
f 77/26/16 26/25/16 28/27/17 78/28/17
f 78/28/17 28/27/17 30/29/18 79/30/18
f 79/30/18 30/29/18 32/31/19 80/32/20
f 80/32/20 32/31/19 34/33/21 81/34/21
f 81/34/21 34/33/21 36/35/22 82/36/23
f 82/36/23 36/35/22 38/37/24 83/38/24
f 83/38/24 38/37/24 40/39/25 84/40/25
f 84/40/25 40/39/25 42/41/26 85/42/26
f 85/42/26 42/41/26 44/43/27 86/44/27
f 86/44/27 44/43/27 46/45/28 87/46/29
f 87/46/29 46/45/28 48/47/30 88/48/30
f 88/48/30 48/47/30 50/49/31 89/50/31
f 89/50/31 50/49/31 52/51/32 90/52/32
f 90/52/32 52/51/32 54/53/33 91/54/34
f 91/54/34 54/53/33 56/55/35 92/56/35
f 92/56/35 56/55/35 58/57/36 93/58/36
f 93/58/36 58/57/36 60/59/37 94/60/37
f 94/60/37 60/59/37 62/61/38 95/62/38
f 95/62/38 62/61/38 64/63/39 96/64/40
f 96/64/40 64/63/39 2/65/1 65/66/1
f 1/67/41 3/68/41 5/69/41 7/70/41 9/71/41 11/72/41 13/73/41 15/74/41 17/75/41 19/76/41 21/77/41 23/78/41 25/79/41 27/80/41 29/81/41 31/82/41 33/83/41 35/84/41 37/85/41 39/86/41 41/87/41 43/88/41 45/89/41 47/90/41 49/91/41 51/92/41 53/93/41 55/94/41 57/95/41 59/96/41 61/97/41 63/98/41
